<svg xmlns="http://www.w3.org/2000/svg" viewBox="0 0 336 325"><rect width="336" height="325" fill="#F5F1E8"/><path d="M56.5,86.1 L55.0,86.3 L50.5,84.1 L49.0,82.0 L48.0,81.4 L45.0,81.1 L42.4,78.0 L42.7,76.0 L43.7,73.5 L43.7,71.0 L40.9,67.0 L40.3,60.0 L41.3,58.0 L43.0,56.7 L46.5,52.4 L48.0,51.8 L52.5,51.9 L54.7,53.0 L57.5,55.6 L60.5,56.7 L79.5,56.6 L81.0,55.7 L82.1,54.0 L82.1,50.5 L79.5,47.4 L74.4,46.0 L73.4,45.0 L73.4,44.0 L74.3,42.5 L76.0,41.4 L79.0,40.8 L85.0,41.2 L86.5,40.6 L88.1,39.0 L88.9,35.0 L89.5,34.7 L98.0,36.7 L101.0,36.8 L106.5,38.6 L109.0,38.8 L119.5,41.4 L122.0,42.5 L122.8,45.5 L125.5,46.4 L126.6,47.5 L127.7,51.0 L127.1,53.5 L125.0,56.7 L122.0,57.7 L113.0,57.6 L111.4,57.0 L109.2,54.5 L106.0,52.4 L103.5,51.8 L101.5,52.4 L94.9,60.0 L93.0,67.2 L87.1,73.0 L82.5,73.9 L78.5,75.4 L76.8,77.0 L75.7,79.0 L70.0,84.6 L66.0,85.7 L58.0,85.8 L56.5,86.1Z M134.5,77.6 L132.5,77.5 L131.3,74.0 L132.5,70.0 L134.5,69.3 L137.0,70.3 L137.7,72.5 L137.1,75.5 L134.5,77.6Z M198.0,91.6 L196.5,91.9 L194.0,90.9 L190.5,90.7 L186.8,89.5 L185.8,87.0 L185.8,84.5 L187.5,80.8 L189.0,79.9 L191.0,79.6 L200.5,79.7 L204.0,79.1 L206.7,78.0 L209.3,74.5 L211.0,73.8 L217.0,73.6 L219.0,74.2 L224.0,74.3 L227.0,75.4 L229.6,77.0 L229.8,81.5 L230.7,85.0 L230.7,87.0 L230.0,88.7 L228.5,90.1 L226.0,90.7 L200.5,90.8 L198.0,91.6Z M127.5,107.1 L119.0,106.7 L116.5,105.5 L115.4,103.5 L115.3,101.5 L115.7,99.5 L115.8,93.5 L117.0,91.4 L121.5,89.9 L123.5,89.9 L125.0,90.8 L130.1,96.0 L131.6,99.0 L132.1,103.0 L131.6,104.5 L130.5,105.7 L127.5,107.1Z M157.0,149.6 L146.0,149.7 L143.5,148.5 L142.4,147.0 L141.8,144.5 L142.9,141.5 L149.3,134.5 L157.0,134.4 L158.6,136.0 L159.7,141.5 L159.7,145.0 L158.6,148.5 L157.0,149.6Z M58.5,200.6 L56.4,199.0 L55.8,197.5 L56.0,196.4 L59.6,198.5 L59.2,200.0 L58.5,200.6Z M81.0,205.7 L79.0,205.7 L76.9,205.0 L76.3,204.0 L77.0,202.3 L78.0,201.8 L81.0,202.0 L81.0,205.7Z" fill="#3D7DB3" fill-rule="evenodd" stroke="#F5F1E8" stroke-width="1.4" stroke-linejoin="round"/><path d="M35.5,64.1 L33.9,62.5 L28.9,54.0 L25.1,36.0 L13.9,22.0 L14.0,19.9 L19.0,14.9 L21.0,13.9 L22.0,13.9 L28.5,18.6 L32.5,20.6 L41.0,22.4 L80.5,32.6 L83.5,32.9 L88.5,34.5 L88.6,37.5 L88.0,39.1 L86.5,40.6 L85.0,41.2 L83.0,40.8 L78.5,40.8 L73.5,41.9 L71.4,43.5 L71.9,44.5 L74.5,46.1 L78.5,46.9 L81.5,49.3 L82.2,51.0 L82.2,53.5 L81.6,55.0 L80.5,56.1 L78.5,56.7 L60.5,56.7 L57.5,55.6 L54.7,53.0 L52.5,51.9 L48.0,51.8 L45.8,53.0 L43.0,56.7 L38.3,61.0 L37.0,63.2 L35.5,64.1Z M186.5,177.6 L175.5,177.7 L171.0,176.1 L166.6,172.5 L165.0,171.9 L152.0,171.7 L150.0,171.1 L145.5,167.4 L143.5,166.8 L140.5,166.6 L138.5,165.7 L136.9,163.5 L136.7,160.0 L135.6,157.5 L134.5,156.4 L132.5,155.8 L129.0,156.9 L125.8,159.0 L121.3,163.0 L118.0,166.8 L116.4,169.5 L116.2,173.5 L115.2,175.5 L113.5,176.2 L110.9,176.0 L106.5,171.2 L104.9,168.5 L104.7,159.5 L103.5,156.3 L95.5,151.4 L94.0,150.8 L91.5,150.7 L90.8,150.0 L90.8,143.0 L91.7,140.0 L91.8,130.0 L92.2,127.0 L84.6,112.5 L82.5,110.8 L75.5,110.7 L72.5,109.8 L67.0,109.6 L59.8,106.5 L59.4,105.5 L60.0,104.3 L69.7,95.0 L70.2,93.0 L69.5,91.8 L67.5,90.9 L60.5,90.7 L58.0,90.1 L56.4,88.5 L56.0,86.5 L57.5,85.8 L66.0,85.7 L70.0,84.6 L75.5,79.3 L78.0,78.2 L81.0,74.5 L87.1,73.0 L93.0,67.2 L94.9,60.0 L101.5,52.4 L103.5,51.8 L106.0,52.4 L107.7,53.5 L109.8,56.0 L113.5,57.7 L122.0,57.7 L124.5,57.1 L126.1,55.5 L127.7,51.5 L127.1,48.5 L125.8,46.0 L126.5,44.1 L127.0,43.9 L129.0,44.7 L132.0,44.9 L136.0,46.7 L140.0,46.8 L155.0,50.7 L158.0,50.8 L166.0,52.7 L169.0,52.8 L170.5,55.2 L173.0,56.6 L177.0,57.2 L180.5,56.4 L183.5,58.6 L186.5,59.7 L188.0,59.6 L193.0,57.8 L196.0,57.8 L209.0,60.7 L212.0,60.8 L215.0,61.7 L217.0,61.8 L220.0,62.7 L223.0,62.8 L231.0,64.7 L238.2,65.0 L238.0,66.2 L236.5,67.1 L226.5,68.9 L222.0,70.4 L216.5,73.6 L211.0,73.8 L208.0,74.9 L204.0,79.1 L201.0,79.7 L191.0,79.6 L189.0,79.9 L187.5,80.8 L186.4,82.5 L185.8,85.0 L186.2,88.5 L185.7,89.5 L182.0,90.7 L179.0,90.9 L176.4,93.0 L175.8,95.0 L175.8,102.5 L176.6,107.0 L175.5,109.2 L173.5,111.1 L170.8,112.5 L169.4,114.5 L168.8,116.5 L168.6,126.0 L168.0,127.6 L165.0,130.8 L164.3,132.5 L164.7,136.0 L164.6,148.5 L163.5,149.7 L160.3,150.0 L158.9,151.5 L158.8,158.0 L159.4,159.5 L160.5,160.6 L162.5,160.1 L164.1,158.5 L164.7,156.5 L164.8,152.5 L165.5,151.3 L166.5,150.8 L171.0,150.6 L172.5,150.1 L173.7,149.0 L175.1,147.0 L176.9,141.5 L181.1,136.0 L181.6,134.0 L181.1,132.0 L180.2,130.5 L176.4,126.5 L175.8,123.0 L176.9,120.0 L179.6,116.5 L180.6,114.5 L180.8,104.5 L181.9,98.5 L183.0,96.5 L186.0,95.3 L191.5,94.8 L194.0,95.1 L195.7,94.0 L197.0,92.0 L200.5,90.8 L226.0,90.7 L228.5,90.1 L230.0,88.7 L230.7,87.0 L230.7,85.0 L229.8,81.5 L229.8,77.0 L230.9,74.5 L232.0,73.8 L237.0,73.9 L240.5,75.8 L243.8,80.0 L250.0,86.3 L251.6,89.0 L252.7,92.0 L252.7,93.5 L251.6,97.0 L250.5,98.7 L249.0,99.6 L247.0,99.1 L243.0,96.4 L241.0,95.8 L222.5,95.8 L220.5,97.0 L218.9,100.5 L218.9,102.5 L220.0,105.2 L224.1,109.0 L224.7,110.5 L224.8,113.5 L225.4,115.5 L228.2,120.5 L224.9,126.5 L224.7,135.0 L224.1,137.0 L222.5,139.1 L221.0,139.7 L218.0,139.8 L216.0,140.4 L213.3,142.0 L211.3,144.0 L209.9,146.0 L207.9,150.5 L207.7,155.0 L207.1,157.0 L203.0,164.2 L201.1,166.0 L197.3,168.0 L194.5,172.2 L192.5,174.2 L189.0,176.6 L186.5,177.6Z M304.0,62.6 L302.5,62.6 L301.4,61.0 L304.5,60.9 L305.0,62.0 L304.0,62.6Z M201.2,67.5 L202.6,66.0 L202.1,64.0 L201.0,63.3 L199.0,63.4 L197.9,64.5 L197.9,66.5 L199.0,67.6 L201.2,67.5Z M42.5,76.0 L41.5,76.0 L41.0,75.2 L38.4,70.0 L38.5,68.9 L41.5,68.4 L43.6,70.5 L43.7,73.5 L42.5,76.0Z M135.7,80.5 L137.0,79.7 L137.6,78.5 L138.2,74.0 L137.0,70.3 L135.5,69.4 L134.0,69.3 L132.1,70.5 L131.3,74.0 L133.0,79.6 L134.0,80.6 L135.7,80.5Z M49.0,84.6 L48.0,84.9 L45.8,83.5 L44.9,82.0 L45.1,81.5 L47.5,81.3 L49.0,82.0 L49.8,83.5 L49.0,84.6Z M127.7,107.0 L131.0,105.2 L132.2,102.5 L131.6,99.0 L130.1,96.0 L125.0,90.8 L123.5,89.9 L121.5,89.9 L117.0,91.4 L115.8,93.5 L115.7,99.5 L115.3,101.5 L115.4,103.5 L116.5,105.5 L119.0,106.7 L127.7,107.0Z M318.5,105.1 L317.5,105.2 L316.4,103.5 L316.3,100.5 L317.9,96.5 L319.5,95.8 L320.0,96.0 L320.2,97.0 L318.5,105.1Z M292.5,118.1 L288.5,118.2 L286.8,117.5 L285.4,115.5 L286.0,113.4 L288.5,111.9 L290.0,111.8 L296.5,111.8 L299.0,113.3 L299.7,115.5 L298.7,117.0 L297.0,117.7 L292.5,118.1Z M315.0,120.5 L313.9,119.0 L313.8,115.5 L314.8,113.0 L315.5,112.4 L316.5,112.4 L316.7,115.0 L315.7,120.0 L315.0,120.5Z M239.0,116.1 L237.5,116.3 L236.4,115.5 L236.3,114.0 L237.0,112.9 L238.5,112.8 L239.6,113.5 L239.7,115.0 L239.0,116.1Z M266.5,170.1 L265.5,170.4 L264.0,170.1 L260.5,167.4 L258.5,166.8 L249.0,166.7 L247.0,166.1 L240.2,157.5 L238.0,156.3 L233.0,156.1 L230.9,154.5 L229.8,151.5 L229.8,145.5 L230.4,143.5 L235.8,136.5 L238.2,134.5 L243.0,129.4 L245.5,128.8 L263.0,128.8 L266.0,129.9 L270.3,133.5 L272.5,134.6 L281.5,134.8 L283.6,136.0 L283.8,137.5 L283.0,138.7 L281.0,139.6 L279.0,139.8 L266.5,139.6 L264.3,138.5 L261.0,134.8 L259.0,133.8 L250.5,133.8 L248.0,134.9 L246.9,136.0 L245.8,139.5 L245.8,143.0 L246.4,146.0 L248.0,149.2 L250.5,150.6 L253.5,150.1 L258.9,145.5 L261.5,144.8 L266.0,144.8 L272.5,145.9 L274.7,147.5 L276.6,150.0 L277.6,153.5 L274.4,160.0 L273.1,164.5 L271.0,166.7 L266.5,170.1Z M157.2,149.5 L158.6,148.5 L159.7,145.0 L159.1,137.0 L155.6,132.5 L153.5,131.8 L151.5,131.9 L150.0,132.8 L146.2,138.0 L143.0,141.3 L141.9,144.0 L141.9,145.5 L143.5,148.5 L145.5,149.6 L157.2,149.5Z M297.0,191.5 L295.4,189.5 L294.8,186.5 L294.8,176.0 L295.5,173.4 L298.0,171.3 L298.5,171.5 L298.7,172.5 L298.7,187.0 L297.7,191.0 L297.0,191.5Z M234.0,187.6 L232.0,187.6 L230.9,186.5 L230.9,185.0 L232.0,183.9 L233.5,183.8 L234.6,184.5 L234.7,186.5 L234.0,187.6Z M66.0,202.5 L59.5,201.2 L59.4,199.5 L60.5,198.3 L65.0,199.4 L66.3,201.5 L66.0,202.5Z M134.5,230.6 L125.0,230.7 L123.0,230.1 L120.9,227.5 L120.6,224.0 L119.0,221.9 L118.0,221.9 L115.5,224.1 L113.0,225.2 L111.0,224.6 L109.5,223.1 L108.8,220.5 L109.7,216.5 L109.8,202.5 L110.4,201.0 L111.9,199.5 L114.5,198.8 L148.0,198.8 L151.0,200.0 L151.7,202.5 L150.6,204.5 L148.5,206.7 L145.0,209.1 L142.5,209.7 L125.0,209.8 L123.3,210.5 L121.9,212.0 L123.3,215.0 L133.0,225.1 L134.5,225.6 L135.5,225.1 L138.0,222.4 L140.0,222.3 L141.1,223.0 L141.2,224.5 L140.5,226.2 L134.5,230.6Z M172.0,219.6 L170.9,219.0 L169.4,216.0 L169.3,214.0 L170.3,212.0 L175.0,209.8 L177.5,210.4 L179.0,211.3 L180.1,213.0 L180.0,214.5 L173.5,219.1 L172.0,219.6Z M201.5,311.6 L175.5,311.7 L140.5,304.7 L133.0,302.8 L110.5,302.7 L109.0,301.7 L107.9,300.0 L107.8,296.5 L109.0,295.8 L120.5,295.8 L126.0,296.7 L128.0,296.3 L132.5,296.3 L138.0,297.2 L144.0,297.3 L145.5,297.7 L149.0,297.3 L151.0,298.3 L153.8,302.0 L155.5,302.7 L213.0,302.8 L214.2,303.0 L215.5,304.0 L214.7,305.0 L212.0,305.9 L209.5,307.6 L201.5,311.6Z M223.5,304.6 L222.5,304.6 L222.4,304.0 L223.5,302.9 L224.9,303.0 L223.5,304.6Z" fill="#B8894C" fill-rule="evenodd" stroke="#F5F1E8" stroke-width="1.4" stroke-linejoin="round"/><path d="M125.5,46.0 L124.5,46.2 L122.8,45.5 L122.3,44.5 L122.5,43.0 L124.0,42.8 L125.7,43.5 L126.2,44.5 L125.5,46.0Z M178.0,57.1 L175.5,57.2 L173.0,56.6 L170.3,55.0 L170.0,53.5 L174.0,53.8 L178.0,54.9 L179.4,56.0 L178.0,57.1Z M188.0,59.6 L186.5,59.7 L184.5,59.1 L183.0,58.2 L181.4,56.5 L182.5,55.8 L184.5,55.9 L187.7,58.0 L188.4,59.0 L188.0,59.6Z M221.5,304.6 L216.5,304.7 L215.0,303.4 L213.0,302.8 L155.5,302.7 L153.8,302.0 L151.0,298.3 L149.0,297.3 L145.5,297.7 L144.0,297.3 L138.0,297.2 L133.0,296.3 L128.0,296.3 L126.0,296.7 L121.0,295.8 L108.0,295.5 L108.2,292.5 L107.4,290.5 L107.7,288.0 L106.8,285.5 L106.7,281.5 L105.8,279.0 L105.7,270.0 L104.8,267.5 L104.7,259.5 L104.3,257.5 L104.7,252.5 L102.8,245.5 L102.8,243.0 L103.7,240.0 L103.3,238.0 L103.7,234.5 L103.3,230.5 L104.7,224.0 L104.3,221.0 L104.7,219.0 L105.0,210.5 L103.5,209.8 L98.5,209.7 L92.5,208.6 L90.5,207.8 L87.0,207.7 L81.5,206.0 L81.3,199.5 L82.6,195.5 L82.7,193.5 L81.5,190.3 L79.0,188.9 L56.1,188.5 L56.7,185.5 L56.7,179.5 L56.3,177.5 L55.9,169.5 L56.8,168.0 L60.0,164.9 L65.0,163.3 L71.5,163.3 L76.0,165.1 L78.5,165.2 L79.5,165.1 L81.5,163.4 L84.0,162.4 L86.5,164.1 L87.5,164.1 L88.2,163.0 L88.4,159.5 L90.6,156.5 L91.0,151.0 L94.0,150.8 L97.5,152.4 L102.5,155.4 L103.6,156.5 L104.7,159.5 L104.9,168.5 L108.8,174.0 L111.0,176.1 L113.5,176.2 L115.5,175.2 L116.2,173.5 L116.3,170.0 L116.9,168.5 L123.0,161.3 L129.0,156.9 L132.5,155.8 L134.5,156.4 L135.6,157.5 L136.7,160.0 L136.9,163.5 L138.5,165.7 L140.5,166.6 L143.5,166.8 L145.5,167.4 L150.0,171.1 L152.0,171.7 L165.0,171.9 L166.6,172.5 L171.0,176.1 L175.5,177.7 L186.0,177.7 L189.0,176.6 L194.0,172.7 L197.5,167.8 L201.1,166.0 L203.1,164.0 L207.1,157.0 L207.7,155.0 L207.9,150.5 L209.9,146.0 L211.3,144.0 L213.3,142.0 L216.0,140.4 L218.0,139.8 L221.0,139.7 L222.5,139.1 L224.1,137.0 L224.7,135.0 L224.9,126.5 L228.2,120.5 L225.4,115.5 L224.8,113.5 L224.7,110.5 L224.1,109.0 L220.0,105.2 L218.9,102.5 L218.9,100.5 L220.5,97.0 L222.5,95.8 L241.0,95.8 L243.0,96.4 L247.0,99.1 L249.0,99.6 L251.1,98.0 L252.6,94.0 L252.6,91.5 L250.1,86.5 L243.8,80.0 L240.2,75.5 L236.5,73.8 L230.5,74.1 L227.0,72.8 L222.0,72.6 L221.0,72.0 L221.3,71.0 L226.5,68.9 L236.5,67.1 L237.7,66.5 L239.0,64.9 L241.5,63.9 L244.0,63.7 L251.0,61.8 L254.5,61.7 L257.0,60.8 L267.5,60.8 L268.1,61.5 L267.7,65.0 L266.7,67.0 L263.5,68.6 L260.5,68.8 L258.5,69.6 L257.5,70.8 L256.8,73.0 L256.8,102.0 L257.4,105.0 L258.0,105.7 L260.5,106.7 L273.0,106.6 L275.4,102.5 L276.5,101.4 L278.0,100.8 L287.0,100.6 L289.5,99.2 L291.5,96.9 L294.0,95.8 L302.5,95.9 L304.5,96.9 L308.5,100.1 L310.0,100.1 L311.5,99.2 L312.7,96.5 L312.7,94.5 L311.4,90.5 L311.9,88.5 L312.8,86.5 L314.5,85.8 L316.6,87.5 L317.4,91.0 L318.7,94.0 L318.6,95.5 L316.3,100.5 L316.4,103.5 L317.9,106.0 L317.7,110.0 L317.0,112.0 L315.5,112.4 L314.4,113.5 L313.8,115.5 L313.8,118.5 L315.1,121.5 L312.1,128.0 L310.0,131.2 L308.0,132.5 L306.1,140.5 L304.1,146.0 L302.4,149.0 L302.1,151.5 L300.8,154.0 L300.6,156.0 L298.8,159.0 L298.3,162.5 L298.7,164.5 L298.7,170.5 L295.5,173.4 L294.8,176.0 L294.8,186.5 L295.4,189.5 L297.2,192.5 L295.6,198.0 L294.0,200.1 L291.0,200.4 L288.5,201.2 L285.0,199.5 L284.8,199.0 L284.8,177.0 L285.5,174.4 L289.0,171.5 L289.7,170.0 L289.8,161.0 L290.2,158.0 L289.2,156.0 L288.0,155.4 L285.9,156.5 L284.8,160.0 L284.6,163.5 L283.7,165.0 L279.9,168.5 L278.6,174.0 L277.7,175.5 L272.0,177.7 L265.5,177.9 L263.5,179.4 L262.8,181.5 L262.8,185.0 L263.9,189.0 L262.8,192.5 L262.6,195.5 L261.7,197.0 L258.0,200.3 L256.9,203.0 L256.8,206.0 L258.0,208.7 L259.5,209.6 L264.0,210.4 L265.7,211.5 L265.7,216.0 L264.8,219.5 L265.7,223.0 L265.7,226.0 L264.8,230.0 L264.6,244.0 L262.5,247.7 L259.9,250.5 L259.6,252.0 L258.0,254.5 L254.0,254.4 L251.0,256.6 L249.0,257.2 L247.3,256.0 L246.4,254.0 L246.2,247.5 L245.1,243.0 L239.0,238.4 L238.0,238.4 L236.5,239.4 L235.6,243.0 L234.6,245.0 L233.5,246.7 L230.4,249.5 L228.8,259.5 L229.4,263.5 L229.3,269.5 L230.4,274.5 L232.5,276.2 L237.5,275.5 L238.1,276.5 L238.1,278.0 L231.6,291.5 L227.4,296.0 L225.9,299.0 L225.5,302.0 L223.4,303.0 L221.5,304.6Z M314.5,75.2 L313.0,75.1 L309.5,73.8 L306.0,73.7 L304.0,73.1 L299.0,68.9 L297.5,68.8 L294.0,69.9 L292.5,69.6 L290.2,67.5 L291.0,61.0 L300.0,60.8 L303.0,62.7 L306.0,62.3 L309.8,67.0 L313.0,69.3 L314.6,71.0 L315.2,73.0 L314.5,75.2Z M201.0,67.6 L199.0,67.6 L197.9,66.5 L197.9,64.5 L199.0,63.4 L201.5,63.4 L202.6,65.0 L202.4,66.5 L201.0,67.6Z M36.5,66.3 L35.4,65.0 L36.0,64.0 L36.7,64.5 L36.5,66.3Z M59.0,105.8 L56.5,105.6 L54.8,104.5 L50.9,97.0 L49.6,91.5 L47.8,86.5 L48.0,85.4 L49.5,84.4 L51.0,84.4 L55.0,86.4 L58.0,90.1 L60.5,90.7 L67.0,90.8 L69.0,91.4 L70.1,92.5 L70.2,94.0 L69.7,95.0 L60.8,103.5 L59.0,105.8Z M161.5,160.6 L160.0,160.2 L158.9,158.5 L158.8,152.0 L160.0,150.1 L163.5,149.7 L164.6,148.5 L164.7,136.0 L164.3,132.5 L165.0,130.8 L168.0,127.6 L168.6,126.0 L168.8,116.5 L169.4,114.5 L170.8,112.5 L173.5,111.1 L175.5,109.2 L176.6,107.0 L175.8,102.5 L175.8,95.0 L176.4,93.0 L179.0,90.9 L182.0,90.7 L186.0,89.4 L190.5,90.7 L194.0,90.9 L196.4,92.5 L196.1,93.5 L195.0,94.6 L193.5,95.2 L191.5,94.8 L185.5,95.4 L183.0,96.5 L181.9,98.5 L180.8,104.5 L180.6,114.5 L179.6,116.5 L176.9,120.0 L175.8,123.5 L176.4,126.5 L180.2,130.5 L181.1,132.0 L181.6,134.0 L181.1,136.0 L176.9,141.5 L175.1,147.0 L173.2,149.5 L171.0,150.6 L166.5,150.8 L165.3,151.5 L164.8,152.5 L164.7,156.5 L164.1,158.5 L161.5,160.6Z M265.7,117.5 L267.6,116.0 L267.7,114.0 L267.2,113.0 L265.5,111.9 L259.5,110.8 L252.5,110.8 L250.0,111.4 L247.5,112.8 L246.3,115.0 L247.4,117.0 L249.5,117.7 L265.7,117.5Z M292.8,118.0 L297.0,117.7 L298.7,117.0 L299.7,115.5 L299.0,113.3 L296.5,111.8 L289.5,111.8 L287.5,112.4 L285.9,113.5 L285.4,115.5 L287.0,117.6 L288.5,118.2 L292.8,118.0Z M239.2,116.0 L239.7,115.0 L239.5,113.4 L238.5,112.8 L236.9,113.0 L236.3,114.0 L236.5,115.6 L238.0,116.4 L239.2,116.0Z M266.7,170.0 L271.0,166.7 L273.1,164.5 L274.4,160.0 L277.6,153.5 L276.6,150.0 L274.7,147.5 L272.5,145.9 L266.0,144.8 L261.5,144.8 L258.9,145.5 L253.5,150.1 L250.5,150.6 L248.0,149.2 L246.4,146.0 L245.8,143.0 L245.8,139.5 L246.9,136.0 L248.0,134.9 L250.5,133.8 L259.0,133.8 L261.0,134.8 L264.5,138.6 L266.5,139.6 L268.5,139.8 L281.0,139.6 L282.5,139.1 L283.5,138.2 L283.9,137.0 L283.6,136.0 L281.5,134.8 L272.5,134.6 L270.3,133.5 L266.0,129.9 L263.0,128.8 L245.5,128.8 L243.0,129.4 L238.2,134.5 L235.8,136.5 L230.4,143.5 L229.8,145.5 L229.8,151.5 L230.9,154.5 L233.0,156.1 L238.0,156.3 L240.2,157.5 L247.0,166.1 L249.0,166.7 L258.5,166.8 L260.5,167.4 L264.0,170.1 L265.5,170.4 L266.7,170.0Z M237.7,193.5 L239.7,192.5 L242.5,189.9 L244.5,188.9 L249.0,188.7 L251.2,187.5 L252.1,186.0 L252.4,184.0 L252.1,181.5 L251.1,179.5 L247.3,176.5 L245.0,173.0 L243.0,171.9 L233.5,171.8 L230.0,172.4 L226.5,172.4 L225.0,173.8 L223.5,176.7 L220.0,178.8 L219.4,180.0 L219.9,181.5 L221.5,182.6 L223.5,183.0 L225.5,187.7 L230.0,192.1 L233.5,193.7 L237.7,193.5Z M188.7,198.5 L190.5,197.2 L191.6,195.5 L191.7,192.0 L191.0,190.3 L189.5,189.3 L187.0,189.7 L185.0,189.3 L182.4,189.5 L181.3,191.0 L182.0,197.1 L183.0,198.1 L185.0,198.7 L188.7,198.5Z M274.5,198.3 L271.0,197.6 L270.0,197.0 L270.0,195.0 L273.5,193.8 L276.1,194.5 L277.1,195.5 L277.4,197.0 L274.5,198.3Z M71.0,203.7 L67.0,202.1 L65.0,199.4 L60.5,198.0 L61.5,194.9 L62.5,194.3 L64.0,194.3 L66.2,195.0 L71.6,200.5 L71.7,203.0 L71.0,203.7Z M134.7,230.5 L140.5,226.2 L141.2,224.5 L141.0,222.9 L140.0,222.3 L138.0,222.4 L135.5,225.1 L134.5,225.6 L133.0,225.1 L123.3,215.0 L121.9,212.0 L123.3,210.5 L125.0,209.8 L142.5,209.7 L145.0,209.1 L148.5,206.7 L150.6,204.5 L151.7,202.5 L151.0,200.0 L148.0,198.8 L114.5,198.8 L111.9,199.5 L110.4,201.0 L109.8,202.5 L109.7,216.5 L108.8,220.5 L109.5,223.1 L111.0,224.6 L113.0,225.2 L115.5,224.1 L118.0,221.9 L119.0,221.9 L120.6,224.0 L120.9,227.5 L123.0,230.1 L125.0,230.7 L134.7,230.5Z M173.2,270.0 L179.5,265.4 L184.5,264.7 L185.7,264.0 L186.6,262.5 L186.8,259.0 L187.9,256.0 L196.5,246.2 L197.7,242.5 L197.7,234.5 L196.1,228.5 L192.8,225.0 L191.2,222.5 L185.0,216.3 L181.0,214.6 L179.0,211.3 L175.5,209.8 L171.0,211.4 L169.4,213.5 L169.4,216.0 L170.9,219.5 L169.8,223.0 L169.7,228.0 L168.1,235.5 L165.9,238.5 L164.8,241.5 L164.9,267.5 L167.0,270.1 L173.2,270.0Z" fill="#B5B43E" fill-rule="evenodd" stroke="#F5F1E8" stroke-width="1.4" stroke-linejoin="round"/><path d="M73.0,44.5 L72.0,44.6 L71.4,43.5 L72.5,42.4 L74.0,41.9 L74.1,42.5 L73.0,44.5Z M40.0,68.6 L37.5,68.5 L36.8,67.0 L36.9,63.5 L38.0,61.3 L39.5,60.0 L40.2,60.5 L41.1,67.5 L40.0,68.6Z M285.5,80.6 L284.5,80.6 L281.0,78.7 L279.9,77.5 L279.9,76.0 L281.0,74.3 L287.3,69.0 L289.5,67.9 L290.5,67.9 L291.9,69.5 L290.4,72.0 L289.6,77.5 L288.7,79.0 L285.5,80.6Z M230.0,76.1 L229.0,76.3 L224.0,74.3 L218.5,74.1 L217.7,73.5 L217.8,73.0 L220.0,71.8 L222.5,72.7 L227.5,72.9 L230.5,74.4 L230.0,76.1Z M135.5,80.6 L133.5,80.2 L132.8,78.5 L133.0,78.0 L136.0,76.7 L137.2,75.5 L137.5,74.0 L138.0,73.9 L137.6,78.5 L136.7,80.0 L135.5,80.6Z M77.5,78.6 L76.5,78.5 L76.5,77.4 L78.5,75.4 L80.1,75.0 L79.5,76.7 L77.5,78.6Z M206.5,78.1 L205.5,78.0 L206.3,76.5 L208.1,75.0 L208.5,75.5 L206.5,78.1Z M317.0,78.1 L315.0,78.0 L315.0,76.0 L317.5,75.3 L318.7,76.0 L319.0,77.1 L317.0,78.1Z M320.0,95.7 L319.0,95.5 L318.8,95.0 L319.4,94.0 L320.0,93.8 L320.5,94.0 L320.7,95.0 L320.0,95.7Z M156.0,134.6 L151.5,134.7 L150.0,134.2 L149.7,133.5 L150.3,132.5 L151.5,131.9 L153.5,131.8 L156.2,133.0 L156.6,134.0 L156.0,134.6Z M226.5,177.6 L225.0,177.9 L223.9,177.0 L223.9,176.0 L224.9,174.0 L226.5,172.4 L229.5,172.5 L229.7,174.0 L229.1,175.5 L226.5,177.6Z M183.0,193.6 L182.0,193.5 L181.4,192.5 L181.3,191.0 L181.8,190.0 L183.0,189.3 L186.0,189.7 L186.3,190.5 L185.7,192.0 L184.5,193.1 L183.0,193.6Z M59.5,198.1 L57.3,197.0 L56.6,196.0 L57.5,194.9 L60.5,194.3 L61.2,195.0 L61.1,196.0 L60.0,198.0 L59.5,198.1Z M270.0,205.1 L269.0,204.7 L268.3,203.0 L268.3,199.5 L268.9,198.0 L270.0,197.3 L274.0,198.4 L274.7,199.5 L274.1,201.0 L270.0,205.1Z M80.5,201.7 L77.5,201.8 L77.0,201.7 L76.9,201.0 L78.5,199.9 L80.5,199.3 L81.2,200.5 L80.5,201.7Z M72.5,203.5 L71.8,203.0 L71.8,202.0 L72.0,201.0 L72.5,200.8 L73.5,201.4 L73.6,202.0 L72.5,203.5Z" fill="#93AE80" fill-rule="evenodd" stroke="#F5F1E8" stroke-width="1.4" stroke-linejoin="round"/><path d="M288.0,83.1 L286.4,83.0 L285.4,81.0 L289.1,78.5 L290.9,71.0 L292.0,69.9 L293.5,69.9 L294.1,70.5 L294.7,73.0 L294.5,79.5 L291.0,80.4 L289.2,82.5 L288.0,83.1Z M320.5,93.5 L319.0,93.8 L318.0,92.7 L316.6,87.5 L315.0,85.9 L313.5,85.9 L312.8,86.5 L311.0,90.1 L308.5,90.1 L304.5,85.9 L302.5,84.9 L299.5,84.7 L297.0,83.7 L295.4,81.5 L295.5,80.0 L311.0,79.7 L314.0,78.4 L320.0,77.3 L322.6,81.0 L322.7,82.0 L322.7,86.0 L320.5,93.5Z M223.5,182.5 L222.0,182.7 L220.5,182.1 L219.4,180.0 L220.8,178.0 L223.5,177.1 L224.6,178.0 L224.7,179.5 L223.5,182.5Z M75.5,204.6 L73.2,203.5 L73.6,202.0 L73.1,201.0 L69.5,198.7 L66.2,195.0 L65.0,194.4 L59.5,194.3 L56.0,195.4 L56.0,189.0 L78.0,188.8 L81.2,190.0 L82.7,193.5 L82.1,197.5 L81.0,199.1 L79.5,199.4 L77.0,200.9 L76.2,204.0 L75.5,204.6Z M266.0,210.5 L265.0,210.7 L259.5,209.6 L257.5,208.1 L256.8,206.0 L256.8,203.5 L257.4,201.5 L258.3,200.0 L262.1,196.5 L262.7,195.0 L262.9,192.0 L263.6,190.0 L264.5,189.3 L265.5,189.4 L267.2,191.0 L269.7,195.5 L269.6,197.0 L268.3,200.0 L268.3,203.0 L269.4,205.5 L266.0,210.5Z M173.0,270.1 L167.0,270.1 L164.9,267.5 L164.8,241.0 L168.6,234.0 L169.7,228.0 L169.8,223.0 L170.6,220.5 L173.7,219.0 L178.5,215.4 L180.5,214.6 L185.0,216.3 L191.2,222.5 L192.8,225.0 L196.1,228.5 L197.7,234.5 L197.7,243.0 L196.5,246.2 L187.9,256.0 L186.8,259.0 L186.6,262.5 L185.7,264.0 L184.5,264.7 L179.5,265.4 L173.0,270.1Z M235.0,276.1 L232.0,276.1 L230.4,274.5 L229.3,269.5 L229.4,263.5 L228.8,259.0 L230.4,249.5 L233.5,246.7 L234.6,245.0 L235.6,243.0 L236.5,239.4 L238.5,238.3 L240.2,239.0 L245.1,243.0 L246.2,247.5 L246.3,253.5 L246.9,255.5 L248.0,256.7 L250.0,257.1 L254.5,254.3 L256.5,254.4 L257.5,255.5 L253.0,260.2 L247.3,264.0 L237.5,275.0 L235.0,276.1Z" fill="#2A9483" fill-rule="evenodd" stroke="#F5F1E8" stroke-width="1.4" stroke-linejoin="round"/><path d="M273.0,106.6 L260.0,106.6 L257.8,105.5 L256.8,102.5 L256.9,72.5 L258.0,70.0 L259.0,69.4 L260.5,68.8 L263.5,68.6 L266.5,67.2 L267.6,65.5 L267.8,62.5 L268.5,61.0 L290.5,61.0 L290.7,63.5 L290.0,67.1 L281.0,74.3 L279.8,76.5 L279.9,77.5 L280.8,78.5 L285.0,81.0 L286.5,83.1 L287.5,83.2 L289.0,82.6 L290.5,80.8 L292.0,79.9 L294.5,79.5 L294.7,73.5 L294.3,70.5 L295.0,69.6 L297.0,68.9 L298.5,68.8 L300.0,69.4 L302.5,72.2 L304.0,73.1 L306.0,73.7 L310.0,73.9 L314.5,75.9 L314.5,78.0 L311.5,79.6 L296.5,79.8 L295.5,80.0 L295.3,80.5 L295.9,82.5 L297.5,84.1 L303.5,85.4 L304.7,86.0 L308.4,90.0 L311.5,90.8 L312.7,94.5 L312.7,96.5 L311.0,99.6 L309.5,100.2 L308.5,100.1 L304.5,96.9 L302.0,95.8 L294.0,95.8 L291.5,96.9 L289.5,99.2 L287.0,100.6 L278.0,100.8 L276.5,101.4 L275.4,102.5 L273.0,106.6Z M265.5,117.6 L249.5,117.7 L247.4,117.0 L246.3,115.0 L247.5,112.8 L250.0,111.4 L252.5,110.8 L259.5,110.8 L265.5,111.9 L267.2,113.0 L267.7,114.0 L267.6,116.0 L265.5,117.6Z M284.0,199.7 L278.0,197.0 L276.0,194.4 L273.5,193.8 L269.5,194.5 L267.2,191.0 L263.9,188.5 L262.8,185.0 L262.8,181.5 L263.5,179.4 L265.5,177.9 L272.0,177.7 L275.5,176.6 L278.0,175.2 L279.9,168.5 L283.7,165.0 L284.6,163.5 L284.8,160.0 L285.9,156.5 L286.5,155.9 L288.5,155.4 L289.6,156.5 L290.2,158.0 L289.8,161.0 L289.7,170.0 L289.0,171.5 L285.5,174.4 L284.8,177.0 L284.7,198.5 L284.5,199.5 L284.0,199.7Z M237.5,193.6 L233.5,193.7 L229.8,192.0 L225.4,187.5 L223.9,184.0 L223.9,182.0 L225.0,178.4 L228.7,176.0 L230.5,172.4 L233.5,171.8 L243.0,171.9 L245.0,173.0 L247.3,176.5 L251.1,179.5 L252.2,182.0 L252.1,186.0 L250.5,188.1 L249.0,188.7 L244.5,188.9 L237.5,193.6Z M234.1,187.5 L234.7,186.5 L234.6,184.5 L233.5,183.8 L232.0,183.9 L230.9,185.0 L230.9,186.5 L232.0,187.6 L234.1,187.5Z M188.5,198.6 L185.0,198.7 L183.0,198.1 L181.9,197.0 L181.8,194.5 L182.0,194.0 L185.0,192.7 L187.0,189.9 L189.5,189.3 L190.7,190.0 L191.6,191.5 L191.7,195.0 L190.7,197.0 L188.5,198.6Z" fill="#2F5E2A" fill-rule="evenodd" stroke="#F5F1E8" stroke-width="1.4" stroke-linejoin="round"/><path d="M201.5,311.6 L175.5,311.7 L140.5,304.7 L133.0,302.8 L111.0,302.7 L109.5,302.2 L108.4,301.0 L107.9,300.0 L107.8,298.5 L108.2,292.5 L107.5,290.5 L107.7,288.0 L106.8,285.5 L106.7,281.5 L105.8,279.0 L105.7,270.5 L104.8,267.0 L104.7,260.0 L104.3,257.5 L104.7,253.0 L102.8,245.5 L102.8,243.0 L103.7,240.0 L103.3,237.5 L103.7,234.5 L103.3,230.5 L104.7,224.0 L104.3,221.0 L104.7,218.5 L105.0,210.8 L104.5,210.2 L103.5,209.8 L98.5,209.7 L93.0,208.7 L90.5,207.8 L87.0,207.7 L78.5,205.6 L73.5,203.9 L70.5,203.6 L67.5,202.5 L65.5,202.5 L63.0,201.8 L60.5,201.6 L59.0,201.0 L57.0,199.7 L56.2,198.5 L55.8,197.0 L55.8,189.0 L56.7,184.5 L56.7,179.5 L56.3,177.0 L56.0,169.5 L57.3,167.5 L60.5,164.7 L65.0,163.3 L71.5,163.3 L76.0,165.1 L77.5,165.2 L79.5,165.0 L81.5,163.4 L83.5,162.5 L84.5,162.7 L86.7,164.0 L87.5,163.9 L88.0,163.4 L88.3,160.0 L90.1,157.5 L90.7,156.0 L90.8,143.5 L91.7,139.5 L92.1,126.5 L90.0,123.2 L84.6,112.5 L83.0,111.0 L76.0,110.7 L72.5,109.8 L67.0,109.6 L58.5,105.9 L56.0,105.3 L54.4,104.0 L50.9,97.0 L47.5,85.0 L45.5,83.0 L44.1,80.0 L42.4,78.0 L39.1,71.0 L36.4,67.0 L29.2,54.5 L27.8,49.5 L25.6,37.5 L25.0,36.0 L22.2,32.0 L19.3,29.0 L14.0,22.0 L13.8,20.5 L14.3,19.5 L19.0,14.9 L21.0,14.0 L22.0,14.0 L28.5,18.6 L32.5,20.6 L41.0,22.4 L75.0,30.9 L80.5,32.6 L83.5,32.9 L98.0,36.7 L101.0,36.8 L106.5,38.6 L109.0,38.8 L115.5,40.6 L118.0,40.9 L122.5,42.6 L124.5,42.9 L128.5,44.6 L132.0,44.9 L135.5,46.6 L140.0,46.8 L155.0,50.7 L158.0,50.8 L166.0,52.7 L169.0,52.8 L172.0,53.7 L174.0,53.8 L178.0,54.9 L180.5,56.1 L184.0,55.8 L185.5,56.4 L189.0,58.9 L193.0,57.8 L196.0,57.8 L209.0,60.7 L212.0,60.8 L220.0,62.7 L223.0,62.8 L226.0,63.7 L228.0,63.8 L232.0,64.7 L239.5,64.7 L241.5,63.9 L244.5,63.6 L251.0,61.8 L254.5,61.7 L257.5,60.8 L270.0,60.8 L273.5,61.2 L277.0,60.8 L304.0,60.8 L305.0,61.3 L307.0,63.3 L310.0,67.2 L313.0,69.3 L314.2,70.5 L315.1,72.0 L315.0,75.0 L315.4,75.5 L317.5,75.4 L318.5,75.8 L320.2,77.5 L322.2,80.5 L322.7,82.0 L322.7,86.0 L320.9,93.0 L318.7,104.5 L317.8,107.0 L317.7,110.0 L315.6,120.5 L312.1,128.0 L310.0,131.1 L307.9,133.0 L306.1,140.5 L304.1,146.0 L302.5,149.0 L302.1,151.5 L300.8,154.0 L300.6,156.0 L298.8,159.0 L298.3,162.5 L298.7,165.5 L298.7,186.5 L296.6,195.5 L295.5,198.2 L294.7,199.5 L293.5,200.2 L288.5,201.1 L286.0,199.9 L283.5,199.6 L278.5,197.4 L276.5,197.3 L275.2,198.0 L274.0,201.1 L268.8,206.5 L265.9,211.0 L265.7,216.0 L264.8,219.5 L265.7,223.0 L265.7,225.0 L264.8,230.5 L264.7,243.5 L262.6,247.5 L260.0,250.5 L259.3,252.5 L257.6,255.5 L253.0,260.2 L247.0,264.3 L243.8,267.5 L242.0,270.2 L238.3,274.0 L237.9,275.0 L238.2,277.5 L237.5,279.5 L236.2,281.5 L235.4,284.0 L231.6,291.5 L227.1,296.5 L225.8,299.5 L225.3,302.5 L224.5,303.7 L223.0,304.7 L216.0,304.8 L213.0,305.4 L208.7,308.0 L201.5,311.6Z" fill="none" stroke="#111" stroke-width="2" stroke-linejoin="round"/><g font-family="Arial" font-size="8" fill="#555"><line x1="8" y1="317" x2="61.7" y2="317" stroke="#555" stroke-width=".8"/><text x="8" y="314">100 m</text></g></svg>