<svg xmlns="http://www.w3.org/2000/svg" viewBox="0 0 336 325"><rect width="336" height="325" fill="#F5F1E8"/><path d="M84.5,80.6 L75.0,80.7 L71.5,79.8 L63.0,79.6 L61.0,78.2 L58.2,74.0 L51.8,68.0 L50.9,66.5 L50.9,65.5 L51.8,64.0 L53.5,62.9 L59.5,61.8 L71.0,61.8 L74.0,62.2 L76.7,61.0 L82.1,54.5 L82.7,51.5 L82.3,45.5 L83.4,42.5 L85.0,41.4 L100.0,41.7 L104.0,40.9 L107.5,41.2 L109.5,39.4 L115.0,40.7 L119.0,40.9 L122.0,42.5 L122.8,45.5 L126.7,48.5 L131.8,54.5 L135.5,57.3 L137.6,60.0 L137.7,69.0 L135.5,71.6 L133.0,71.6 L126.5,68.9 L123.0,68.6 L121.5,67.7 L120.2,65.5 L118.5,63.9 L107.5,63.8 L105.5,64.8 L102.0,69.2 L98.0,71.4 L96.5,73.0 L90.8,74.5 L86.7,79.5 L84.5,80.6Z M127.5,107.1 L126.0,107.1 L122.8,106.0 L116.8,100.0 L115.9,98.5 L115.8,87.5 L116.5,86.0 L117.5,85.4 L119.5,85.8 L121.8,89.0 L123.5,90.1 L125.5,90.7 L129.5,90.9 L131.6,93.5 L131.8,100.0 L132.2,101.5 L131.6,104.0 L130.2,106.0 L127.5,107.1Z M208.5,156.6 L197.5,156.7 L194.0,155.4 L191.5,151.5 L189.0,150.2 L186.5,147.8 L180.0,142.7 L177.9,139.0 L177.3,137.0 L177.4,135.5 L178.4,132.5 L180.1,130.5 L180.7,128.5 L180.7,120.5 L179.8,117.5 L180.2,115.5 L179.8,112.0 L180.7,109.0 L180.7,103.5 L179.9,100.0 L181.8,97.0 L183.5,95.9 L195.0,96.2 L197.5,95.3 L202.5,94.9 L206.0,95.9 L212.0,100.1 L215.5,100.2 L218.5,99.4 L225.0,102.3 L228.5,106.3 L230.8,110.0 L235.6,114.5 L236.9,118.5 L235.8,122.5 L235.7,125.5 L234.5,127.7 L230.9,130.5 L230.3,134.0 L230.7,141.5 L229.1,148.5 L223.0,155.6 L215.5,155.8 L213.0,156.4 L210.0,156.3 L208.5,156.6Z" fill="#3D7DB3" fill-rule="evenodd" stroke="#F5F1E8" stroke-width="1.4" stroke-linejoin="round"/><path d="M201.5,311.6 L175.5,311.7 L140.5,304.7 L133.0,302.8 L110.5,302.7 L108.4,301.0 L107.8,299.5 L107.7,293.5 L106.8,291.0 L106.7,282.5 L105.8,280.0 L105.8,277.0 L106.5,276.3 L107.5,276.4 L112.5,280.2 L113.5,280.1 L114.5,279.2 L115.6,277.0 L114.6,272.5 L113.7,271.0 L110.9,268.5 L109.9,266.5 L109.8,265.0 L109.8,247.5 L110.9,244.5 L115.1,239.5 L115.6,237.0 L114.6,234.0 L113.0,231.9 L110.0,230.8 L104.5,230.7 L103.8,230.0 L103.8,222.0 L104.7,218.5 L104.7,212.0 L104.0,210.5 L102.5,209.8 L95.5,209.6 L93.5,208.5 L93.3,207.5 L93.9,204.0 L96.0,201.4 L97.5,201.9 L99.5,203.6 L101.0,204.2 L103.0,203.6 L104.1,202.0 L104.7,200.0 L104.6,198.0 L103.5,195.3 L100.4,192.5 L99.9,191.0 L100.5,190.0 L102.5,188.9 L105.5,188.8 L108.0,189.9 L111.0,192.1 L112.5,192.4 L114.0,192.1 L115.2,191.0 L116.1,189.5 L116.1,188.0 L114.2,184.0 L107.5,178.9 L105.5,179.4 L102.6,182.0 L100.5,182.7 L96.5,182.7 L94.4,181.5 L93.8,180.0 L94.2,177.0 L93.6,175.0 L89.9,171.0 L87.4,164.5 L87.7,162.5 L87.4,160.0 L90.1,156.5 L90.7,155.0 L90.8,143.0 L91.7,140.0 L92.1,126.5 L84.6,112.5 L83.0,110.9 L75.5,110.7 L72.5,109.8 L66.5,109.7 L59.5,107.6 L54.4,105.0 L51.9,100.0 L47.1,86.0 L29.9,56.5 L27.9,50.0 L25.1,36.0 L13.9,22.0 L14.0,19.9 L19.0,14.9 L21.0,13.9 L22.0,13.9 L28.5,18.6 L32.5,20.6 L41.0,22.4 L80.5,32.6 L83.0,32.9 L88.5,34.6 L91.0,34.8 L104.5,38.0 L104.7,39.5 L104.0,40.7 L100.5,41.7 L90.5,41.7 L86.0,41.3 L83.8,42.0 L82.3,45.5 L82.7,51.5 L82.1,54.5 L78.2,59.5 L75.5,61.6 L73.5,62.2 L71.0,61.8 L59.5,61.8 L53.5,62.9 L51.8,64.0 L50.8,66.0 L51.5,67.7 L58.2,74.0 L61.0,78.2 L63.0,79.6 L71.5,79.8 L75.5,80.7 L84.0,80.7 L86.0,80.1 L90.8,74.5 L98.5,72.4 L103.2,68.0 L105.5,64.8 L107.5,63.8 L118.5,63.9 L120.2,65.5 L122.0,68.1 L123.5,68.7 L126.5,68.9 L129.0,69.9 L130.2,70.5 L132.5,73.2 L134.0,74.1 L135.0,74.2 L136.5,73.6 L137.6,72.5 L138.2,71.0 L137.8,69.5 L137.6,60.0 L135.5,57.3 L131.8,54.5 L126.7,48.5 L122.8,45.5 L122.3,43.5 L123.5,42.8 L155.0,50.7 L158.0,50.8 L166.0,52.7 L169.0,52.8 L171.0,55.1 L176.0,56.6 L180.5,56.3 L183.5,57.7 L186.0,57.4 L188.1,59.5 L189.5,62.7 L193.0,66.2 L199.0,69.1 L200.5,69.4 L202.5,71.6 L206.0,73.1 L209.0,73.7 L231.5,73.7 L236.0,72.9 L240.5,74.9 L242.5,77.2 L245.5,78.8 L247.5,83.2 L250.9,86.0 L251.7,88.0 L251.7,92.5 L251.6,93.5 L250.5,95.1 L244.5,96.2 L236.5,95.8 L232.0,97.6 L227.0,94.9 L222.5,94.8 L220.5,95.8 L218.0,99.0 L215.5,100.2 L212.0,100.1 L206.0,95.9 L204.5,95.4 L202.5,94.9 L197.5,95.1 L195.0,91.8 L193.0,90.8 L179.5,90.8 L177.4,92.5 L176.8,94.5 L176.8,96.5 L177.7,99.5 L177.1,101.0 L174.1,105.5 L172.0,105.9 L169.8,107.5 L168.8,110.0 L169.7,115.0 L169.7,118.0 L168.8,122.0 L168.8,132.0 L169.6,136.0 L169.1,137.5 L166.4,141.0 L166.4,143.5 L167.5,144.2 L172.0,144.7 L174.0,144.1 L176.0,142.8 L179.5,142.4 L186.7,148.0 L189.2,150.5 L190.4,153.0 L192.0,154.6 L197.5,156.7 L207.5,156.7 L212.0,156.3 L212.9,157.0 L212.6,158.5 L211.0,160.1 L209.5,160.7 L207.0,160.9 L205.0,162.3 L203.9,164.0 L202.1,169.5 L198.4,173.0 L196.8,177.0 L196.7,186.0 L195.5,188.1 L193.8,187.5 L191.0,184.0 L188.5,182.8 L184.0,182.8 L181.0,183.7 L177.5,182.8 L172.0,182.8 L170.0,183.9 L169.6,188.5 L167.6,193.5 L163.5,197.7 L159.4,201.0 L158.8,203.0 L158.6,212.0 L157.6,214.5 L154.3,218.0 L153.4,219.5 L154.2,224.0 L153.6,231.0 L153.0,231.6 L149.4,232.5 L148.3,234.5 L148.7,236.0 L148.5,237.6 L147.0,239.1 L145.0,239.4 L143.4,240.5 L142.9,242.0 L143.2,246.5 L142.8,249.0 L143.6,252.5 L143.1,254.0 L142.0,255.1 L139.3,256.0 L137.0,258.6 L131.5,258.8 L128.0,260.3 L126.9,262.5 L126.7,266.5 L126.1,268.5 L121.4,272.5 L120.1,278.5 L117.0,281.8 L116.3,283.5 L117.0,285.7 L121.5,290.1 L123.5,291.1 L127.0,291.4 L129.0,292.4 L133.0,295.6 L135.5,296.6 L146.0,297.7 L151.0,296.8 L160.0,296.8 L163.7,298.0 L165.4,301.5 L167.0,302.6 L182.5,302.7 L184.5,302.1 L187.7,299.5 L190.1,295.5 L191.6,291.5 L191.8,273.0 L192.9,270.5 L196.0,268.8 L199.0,270.2 L203.5,269.9 L205.0,270.8 L207.1,273.0 L207.7,275.0 L207.9,282.0 L209.4,285.0 L213.1,289.5 L213.7,293.0 L212.2,296.0 L207.0,300.3 L204.9,303.0 L204.4,304.5 L206.0,309.1 L201.5,311.6Z M232.5,65.6 L231.9,65.0 L232.5,65.0 L232.5,65.6Z M320.0,78.5 L319.0,78.0 L319.0,76.9 L320.5,78.0 L320.0,78.5Z M127.7,107.0 L130.2,106.0 L131.6,104.0 L132.2,101.5 L131.8,100.0 L131.6,93.5 L129.5,90.9 L125.5,90.7 L123.5,90.1 L121.8,89.0 L119.5,85.8 L117.5,85.4 L116.5,86.0 L115.8,87.5 L115.9,98.5 L116.8,100.0 L122.8,106.0 L126.5,107.2 L127.7,107.0Z M318.5,105.1 L317.5,104.7 L316.8,103.5 L316.9,102.5 L318.0,101.4 L318.7,101.5 L318.8,102.0 L318.5,105.1Z M227.0,104.2 L225.9,103.5 L226.0,102.4 L227.5,103.0 L227.5,103.9 L227.0,104.2Z M299.0,118.1 L297.5,118.1 L294.5,116.9 L290.5,116.1 L289.1,113.5 L290.3,112.5 L292.5,111.8 L297.5,111.8 L299.5,112.4 L300.9,113.5 L300.7,116.0 L299.0,118.1Z M178.5,132.1 L177.0,132.0 L175.9,129.0 L175.8,122.0 L176.5,119.4 L179.0,117.9 L179.8,118.5 L180.7,120.5 L180.7,128.0 L180.1,130.5 L178.5,132.1Z M237.5,167.6 L236.5,167.9 L233.0,166.8 L228.0,166.7 L225.0,165.5 L224.7,159.5 L223.6,156.0 L225.0,153.3 L229.6,147.5 L230.7,141.5 L230.4,133.0 L235.6,126.0 L235.9,122.0 L236.4,120.0 L237.5,118.4 L239.5,118.3 L240.5,118.8 L245.8,126.0 L248.0,127.6 L254.0,128.7 L259.5,128.9 L261.5,129.9 L265.5,133.1 L270.0,132.8 L276.0,134.7 L282.0,134.8 L283.5,135.4 L284.6,136.5 L285.1,138.0 L284.0,139.6 L282.5,139.9 L279.5,139.3 L277.0,139.4 L274.4,141.5 L273.5,145.0 L271.5,145.2 L270.0,144.8 L260.5,144.6 L257.9,143.0 L256.9,140.5 L256.6,137.5 L255.0,134.8 L253.5,133.9 L252.0,133.8 L248.5,134.9 L246.9,137.0 L247.1,139.0 L245.3,143.5 L245.4,146.0 L245.9,147.5 L247.0,148.7 L249.5,149.7 L252.5,149.3 L256.0,150.2 L258.5,149.8 L266.0,149.7 L270.5,148.9 L272.5,149.8 L273.6,151.5 L274.7,156.0 L274.6,157.5 L272.5,160.2 L270.3,161.5 L266.0,165.7 L264.5,166.6 L240.5,166.8 L237.5,167.6Z M282.0,128.6 L280.3,128.0 L279.4,126.5 L280.0,124.8 L281.5,123.8 L283.0,123.9 L284.2,125.5 L284.0,127.1 L282.0,128.6Z M70.5,203.6 L59.0,201.1 L56.8,199.5 L55.8,197.5 L55.8,169.5 L58.4,164.0 L60.0,161.8 L61.5,160.9 L70.5,162.9 L71.7,164.0 L71.7,168.0 L71.1,170.0 L67.9,173.5 L66.8,176.5 L67.2,180.0 L66.8,184.5 L66.8,196.5 L67.8,198.5 L71.0,201.3 L71.2,203.0 L70.5,203.6Z M293.0,203.1 L291.0,203.1 L288.7,201.0 L290.4,192.5 L293.1,189.0 L295.8,184.5 L297.0,183.4 L298.3,183.0 L298.7,183.5 L298.7,187.0 L296.8,194.0 L296.6,196.5 L294.1,202.0 L293.0,203.1Z M207.0,198.6 L205.0,198.6 L202.9,197.5 L202.3,195.0 L202.9,192.0 L204.0,190.3 L206.5,188.9 L209.5,188.8 L211.5,189.4 L213.1,191.0 L213.1,192.0 L209.0,195.3 L207.0,198.6Z M194.5,242.1 L192.0,242.0 L190.6,238.5 L188.5,237.0 L187.8,234.5 L188.5,232.0 L191.0,231.1 L193.5,231.7 L196.5,231.6 L198.6,233.5 L199.1,236.5 L196.7,240.0 L194.5,242.1Z M221.0,243.1 L220.0,242.6 L219.4,241.0 L219.8,239.0 L220.5,238.3 L222.5,239.1 L223.2,240.0 L223.0,241.6 L221.0,243.1Z M173.0,268.6 L171.0,268.7 L169.9,268.0 L168.6,261.5 L168.0,260.3 L166.4,259.0 L165.4,256.5 L164.8,253.5 L165.4,251.0 L167.8,248.0 L171.5,244.3 L173.0,243.4 L175.5,242.8 L180.0,242.8 L184.0,243.9 L188.1,248.5 L188.1,253.0 L186.0,256.7 L184.0,258.1 L182.0,258.1 L180.5,255.8 L179.0,254.9 L177.8,255.5 L176.8,257.5 L177.1,264.0 L174.7,267.5 L173.0,268.6Z M224.5,304.6 L222.5,304.6 L222.2,304.0 L223.3,302.5 L225.5,301.6 L226.1,302.5 L224.5,304.6Z" fill="#B8894C" fill-rule="evenodd" stroke="#F5F1E8" stroke-width="1.4" stroke-linejoin="round"/><path d="M178.5,56.6 L176.5,56.7 L172.5,55.6 L170.9,55.0 L170.0,53.9 L170.5,53.5 L175.0,54.7 L178.0,54.9 L179.2,56.0 L178.5,56.6Z M184.5,57.6 L183.0,57.6 L181.6,56.5 L182.5,55.8 L184.0,55.9 L185.2,57.0 L184.5,57.6Z M232.5,73.6 L209.0,73.7 L206.0,73.1 L202.5,71.6 L201.4,70.5 L201.2,69.0 L202.1,67.5 L202.6,65.5 L201.1,62.5 L199.5,62.3 L198.0,63.0 L196.0,67.0 L195.0,67.1 L193.0,66.2 L189.8,63.0 L188.9,61.5 L188.7,60.0 L192.0,58.3 L193.5,59.0 L195.5,60.9 L198.0,59.4 L201.0,60.7 L204.5,59.8 L207.0,60.7 L209.5,61.1 L212.0,60.8 L215.0,61.7 L222.0,62.9 L224.0,63.7 L227.0,63.8 L232.5,65.7 L239.0,65.3 L239.1,67.0 L236.9,69.5 L235.5,72.5 L232.5,73.6Z M263.5,68.6 L259.0,68.7 L258.0,68.2 L256.8,65.0 L257.5,61.0 L267.9,61.0 L267.7,65.0 L267.1,66.5 L266.0,67.6 L263.5,68.6Z M288.0,200.7 L286.5,200.6 L284.7,199.5 L284.8,177.5 L285.4,174.5 L286.3,173.0 L289.5,170.2 L291.0,166.8 L293.0,165.7 L294.6,163.5 L295.7,158.5 L294.8,153.0 L295.9,148.0 L296.8,146.5 L300.1,143.5 L300.7,142.0 L300.8,139.0 L301.4,136.5 L302.5,134.8 L306.0,132.6 L306.2,132.0 L305.6,130.5 L304.0,129.4 L302.0,128.8 L292.5,128.9 L290.4,130.5 L289.8,133.0 L289.7,138.5 L289.1,141.5 L288.0,143.5 L285.5,144.7 L274.0,144.8 L274.4,141.5 L276.0,139.9 L277.5,139.3 L282.5,139.9 L284.1,139.5 L285.1,138.0 L284.2,136.0 L282.0,134.8 L276.0,134.7 L270.0,132.8 L265.5,133.1 L261.5,129.9 L259.5,128.9 L254.0,128.7 L248.0,127.6 L245.5,125.7 L239.9,117.5 L241.8,114.0 L243.5,113.3 L245.0,113.5 L246.5,116.2 L249.0,117.6 L257.5,117.8 L259.0,118.2 L263.0,118.2 L267.5,117.3 L270.5,117.7 L281.5,117.7 L284.0,116.6 L286.3,114.0 L287.5,113.3 L288.6,113.5 L290.5,116.1 L294.5,116.9 L298.0,118.2 L299.0,118.1 L300.2,117.0 L300.9,114.0 L302.5,113.1 L304.5,113.8 L307.5,117.1 L309.5,117.2 L311.2,116.5 L312.1,115.0 L312.1,113.0 L308.5,110.7 L307.8,109.0 L308.3,107.5 L311.0,105.7 L312.2,104.0 L311.6,100.5 L311.8,93.5 L313.1,86.5 L312.3,82.5 L312.6,75.5 L312.0,74.3 L311.0,73.8 L306.0,73.7 L303.5,73.1 L299.0,69.4 L297.5,68.8 L292.5,68.1 L290.8,66.0 L291.4,62.5 L293.0,60.8 L297.0,60.8 L299.5,61.7 L302.0,60.8 L305.0,60.8 L307.6,63.0 L308.2,65.0 L308.0,68.1 L312.5,69.8 L313.2,71.0 L313.0,73.1 L314.0,73.7 L315.5,73.3 L316.5,73.8 L318.6,76.0 L319.0,78.0 L321.0,79.0 L322.0,80.3 L322.2,86.5 L320.6,94.0 L319.3,96.5 L319.7,98.5 L319.2,100.5 L317.3,102.0 L316.8,103.0 L316.9,104.0 L318.1,105.5 L318.2,107.0 L317.6,110.0 L315.9,112.5 L316.1,115.5 L314.9,117.5 L314.6,120.0 L313.1,124.5 L311.9,126.5 L311.1,129.5 L307.9,133.5 L305.6,142.0 L303.9,145.0 L302.6,150.0 L302.0,151.2 L299.9,153.0 L300.2,157.5 L298.3,162.5 L298.7,164.5 L298.7,169.0 L297.8,172.0 L297.8,179.5 L298.5,182.5 L295.8,184.5 L293.1,189.0 L290.9,191.5 L289.1,199.0 L288.0,200.7Z M244.5,77.7 L242.5,77.2 L241.8,75.5 L243.6,75.5 L244.6,77.0 L244.5,77.7Z M239.0,109.6 L238.0,109.6 L237.4,109.0 L236.1,101.5 L232.8,98.0 L234.5,96.4 L236.5,95.8 L244.5,96.2 L249.0,95.6 L251.0,94.7 L251.7,93.0 L251.6,87.5 L250.5,85.5 L247.4,83.0 L246.8,81.5 L247.0,80.6 L247.5,80.4 L255.5,85.0 L256.7,88.0 L256.6,93.0 L255.5,95.5 L252.9,96.0 L248.5,100.1 L244.0,100.9 L242.5,101.8 L240.9,104.5 L240.6,107.5 L239.0,109.6Z M179.5,100.1 L178.0,99.7 L176.8,96.5 L176.9,93.5 L179.0,90.9 L193.0,90.8 L194.7,91.5 L195.9,93.0 L196.0,94.0 L195.5,94.3 L191.5,96.1 L183.5,95.9 L181.8,97.0 L179.5,100.1Z M169.0,144.2 L167.0,144.1 L166.3,142.5 L166.4,141.0 L169.1,137.5 L169.6,136.0 L168.8,132.0 L168.8,122.0 L169.7,118.0 L169.7,115.0 L168.8,110.0 L169.4,108.0 L170.5,106.8 L172.0,105.9 L173.5,105.8 L174.6,106.5 L176.3,110.0 L177.9,111.5 L179.9,112.5 L180.2,116.0 L179.5,117.5 L176.5,119.4 L175.8,121.5 L175.8,128.5 L176.7,131.5 L176.6,133.0 L173.6,138.5 L171.0,140.5 L169.5,144.0 L169.0,144.2Z M282.2,128.5 L284.0,127.1 L284.2,125.5 L283.0,123.9 L281.5,123.8 L280.0,124.8 L279.4,126.5 L280.5,128.1 L282.2,128.5Z M261.0,176.6 L259.5,176.7 L258.0,176.0 L256.0,173.0 L254.0,171.9 L249.0,171.8 L246.0,172.6 L243.5,171.8 L240.0,171.7 L237.0,170.5 L236.4,169.0 L237.0,167.9 L240.0,166.8 L264.5,166.6 L266.0,165.7 L270.3,161.5 L272.5,160.2 L274.6,157.5 L274.7,156.0 L273.6,151.5 L272.0,149.4 L269.5,148.8 L266.0,149.7 L258.5,149.8 L256.0,150.2 L252.5,149.0 L252.7,143.0 L252.1,141.5 L250.5,139.9 L247.9,139.0 L246.8,137.5 L248.0,135.3 L251.0,133.9 L253.5,133.9 L255.5,135.3 L256.6,137.5 L257.4,142.0 L258.5,143.6 L261.0,144.7 L270.0,144.8 L273.5,145.3 L274.4,148.5 L277.7,151.5 L278.6,153.0 L278.7,164.0 L278.0,165.7 L274.3,168.0 L271.0,171.1 L269.0,171.7 L264.5,172.1 L261.0,176.6Z M208.0,220.6 L200.5,220.7 L198.0,219.2 L196.8,216.5 L196.8,209.0 L198.0,206.3 L199.5,205.4 L201.5,204.8 L206.0,204.7 L207.5,204.0 L208.2,202.5 L208.1,200.5 L207.4,199.0 L207.9,197.0 L209.3,195.0 L212.7,192.5 L213.1,191.0 L211.6,189.5 L210.0,188.9 L206.5,188.9 L204.0,190.3 L202.4,193.0 L202.5,197.5 L201.5,198.1 L200.0,198.2 L198.0,197.2 L196.9,195.0 L196.7,191.0 L195.9,188.5 L196.7,186.0 L196.8,177.0 L198.4,173.0 L202.1,169.5 L203.9,164.0 L205.5,161.8 L207.0,160.9 L209.5,160.7 L211.0,160.1 L212.5,158.6 L213.3,157.0 L215.0,155.9 L222.5,155.8 L223.6,156.5 L224.7,159.5 L224.5,165.5 L222.0,166.7 L211.0,166.8 L209.5,167.4 L207.9,169.0 L207.1,173.5 L203.8,179.0 L203.9,181.0 L205.0,182.1 L207.0,182.7 L214.5,182.8 L216.5,183.4 L218.1,185.0 L218.7,187.0 L217.9,191.0 L218.3,198.0 L218.7,199.5 L218.6,205.5 L217.5,208.2 L213.9,212.0 L212.1,218.5 L208.0,220.6Z M92.5,208.2 L90.0,208.2 L81.5,206.1 L78.7,202.5 L77.0,201.1 L74.0,203.6 L72.0,203.7 L71.5,203.5 L70.5,200.5 L68.0,198.7 L66.9,197.0 L66.8,184.5 L67.2,179.5 L66.8,176.0 L68.0,173.3 L71.1,170.0 L71.7,168.0 L72.0,164.1 L74.5,164.4 L76.5,165.2 L79.0,165.2 L81.0,164.6 L83.0,162.9 L85.0,162.9 L87.5,164.8 L89.9,171.0 L93.6,175.0 L94.2,177.0 L93.8,180.0 L94.8,182.0 L96.5,182.7 L101.0,182.6 L102.6,182.0 L105.5,179.4 L107.5,178.9 L114.0,183.8 L115.6,186.5 L116.1,189.5 L115.2,191.0 L113.5,192.2 L111.0,192.1 L108.0,189.9 L105.5,188.8 L102.5,188.9 L100.5,190.0 L99.9,191.0 L100.4,192.5 L103.5,195.3 L104.6,198.0 L104.7,200.0 L104.1,202.0 L103.0,203.6 L101.0,204.2 L99.5,203.6 L97.5,201.9 L96.0,201.4 L94.4,203.0 L93.6,206.5 L92.5,208.2Z M92.7,193.0 L93.9,192.0 L94.7,189.5 L94.7,187.5 L93.6,184.0 L92.0,182.9 L89.0,182.8 L87.7,179.0 L86.5,177.9 L84.5,177.9 L83.3,179.5 L83.8,181.5 L85.5,182.6 L88.8,183.0 L88.9,191.5 L90.5,193.1 L92.7,193.0Z M150.0,237.1 L149.0,237.0 L148.4,234.0 L149.5,232.4 L153.0,231.6 L153.6,231.0 L154.2,224.0 L153.4,219.5 L154.3,218.0 L157.6,214.5 L158.6,212.0 L158.8,203.0 L159.4,201.0 L163.5,197.7 L167.6,193.5 L169.1,190.5 L169.7,188.0 L169.8,184.5 L170.3,183.5 L172.0,182.8 L177.0,182.8 L180.0,183.6 L180.7,184.5 L179.5,187.2 L175.2,191.0 L170.8,194.0 L165.4,201.0 L164.8,203.0 L164.6,212.0 L163.0,214.2 L159.8,216.5 L158.9,218.0 L158.7,227.5 L158.1,229.5 L156.7,231.0 L154.5,232.3 L152.7,235.0 L150.0,237.1Z M200.5,236.1 L199.5,236.0 L198.6,233.5 L196.9,231.5 L197.4,229.5 L198.5,227.9 L201.0,226.9 L203.0,226.8 L205.0,227.4 L205.7,229.0 L205.1,231.0 L202.0,235.2 L200.5,236.1Z M226.5,246.6 L223.0,246.7 L220.9,245.5 L220.5,243.5 L222.7,242.0 L223.2,240.0 L222.5,239.1 L220.0,238.0 L219.4,237.0 L219.3,235.0 L220.3,233.0 L224.0,230.7 L226.3,228.0 L230.0,226.8 L233.0,227.9 L234.6,230.0 L235.2,232.0 L234.8,234.5 L235.2,238.0 L234.6,240.5 L233.7,242.0 L226.5,246.6Z M189.5,231.6 L188.5,231.6 L187.8,230.5 L187.9,229.5 L189.0,228.4 L190.0,228.8 L190.7,230.0 L190.5,231.0 L189.5,231.6Z M113.5,280.1 L112.0,280.1 L108.7,277.0 L106.0,276.0 L105.8,275.5 L105.7,270.0 L104.8,267.5 L104.7,260.5 L103.8,258.0 L103.7,248.5 L102.8,245.5 L103.1,233.0 L103.3,231.5 L104.0,230.8 L110.0,230.8 L113.0,231.9 L114.6,234.0 L115.6,237.0 L115.1,239.5 L110.9,244.5 L109.8,247.5 L109.8,266.0 L111.0,268.7 L114.1,271.5 L115.1,273.5 L115.7,276.5 L115.1,278.5 L113.5,280.1Z M191.0,242.1 L188.5,242.1 L187.4,241.0 L187.4,239.0 L188.5,237.4 L190.6,238.5 L191.6,241.0 L191.0,242.1Z M263.0,248.1 L259.5,247.1 L257.4,245.0 L257.4,241.5 L259.0,239.4 L261.0,238.8 L264.5,239.0 L264.7,245.5 L264.1,247.0 L263.0,248.1Z M145.0,252.6 L143.5,252.1 L142.8,250.0 L143.2,246.5 L142.9,242.0 L143.8,240.0 L146.0,239.3 L146.7,240.0 L147.2,246.5 L146.6,250.0 L145.0,252.6Z M178.5,263.6 L177.5,263.6 L176.9,263.0 L176.8,257.5 L177.8,255.5 L179.0,254.9 L180.5,255.8 L181.7,258.5 L180.1,262.5 L178.5,263.6Z M183.0,302.6 L167.0,302.6 L165.4,301.5 L163.7,298.0 L160.0,296.8 L151.0,296.8 L146.0,297.7 L135.5,296.6 L133.0,295.6 L129.0,292.4 L127.0,291.4 L123.5,291.1 L121.3,290.0 L117.0,285.7 L116.4,284.5 L116.4,283.0 L120.1,278.5 L121.4,272.5 L126.1,268.5 L126.7,266.5 L126.9,262.5 L128.0,260.3 L131.5,258.8 L137.0,258.6 L139.0,256.3 L141.0,255.3 L141.6,256.0 L141.0,257.2 L138.0,259.8 L136.0,263.7 L132.4,266.5 L132.3,268.0 L132.8,269.0 L141.7,277.5 L143.8,280.5 L149.0,286.1 L150.5,286.7 L153.5,286.8 L156.0,287.4 L157.5,288.3 L160.0,291.2 L162.5,292.6 L172.5,292.7 L174.5,291.7 L180.1,285.5 L180.7,284.0 L180.9,279.5 L182.5,277.3 L186.1,274.5 L186.7,273.0 L186.9,268.5 L188.0,266.3 L189.5,265.4 L191.5,264.9 L194.0,265.4 L196.2,268.0 L193.0,270.3 L191.8,273.0 L191.6,291.5 L190.6,294.5 L188.0,299.2 L186.0,301.1 L183.0,302.6Z M206.5,308.3 L205.4,307.5 L204.4,304.0 L206.0,301.3 L212.5,295.7 L213.6,293.5 L213.7,291.5 L212.1,288.0 L208.4,283.5 L207.8,281.5 L207.7,275.0 L207.1,273.0 L202.8,269.0 L202.9,258.0 L203.8,256.5 L205.0,255.8 L210.5,258.7 L224.5,258.8 L227.0,259.4 L228.6,260.5 L228.9,262.0 L228.6,263.0 L223.0,268.7 L220.0,270.8 L219.3,272.5 L219.4,274.0 L220.9,275.5 L223.5,275.8 L227.0,276.9 L228.5,278.3 L229.2,280.0 L229.1,283.5 L225.3,289.0 L226.4,294.5 L225.6,296.5 L225.6,301.0 L221.0,304.7 L208.5,304.9 L206.5,308.3Z M168.0,268.6 L166.0,267.7 L164.8,265.5 L164.9,262.5 L165.9,260.0 L166.5,259.6 L168.1,260.5 L169.2,263.5 L169.7,267.5 L168.0,268.6Z" fill="#B5B43E" fill-rule="evenodd" stroke="#F5F1E8" stroke-width="1.4" stroke-linejoin="round"/><path d="M108.0,41.1 L104.9,41.0 L104.6,40.5 L105.0,38.5 L108.6,39.0 L108.8,40.0 L108.0,41.1Z M135.5,74.1 L134.5,74.2 L133.0,73.6 L131.0,71.4 L131.5,71.0 L133.5,71.7 L135.0,71.7 L137.0,70.3 L138.0,70.4 L138.1,71.5 L137.6,72.5 L135.5,74.1Z M98.0,72.6 L97.4,72.5 L97.4,72.0 L99.0,71.1 L99.0,72.0 L98.0,72.6Z M195.5,96.1 L193.5,96.1 L193.5,95.5 L195.5,94.4 L196.5,94.4 L196.9,95.0 L196.6,95.5 L195.5,96.1Z M231.5,131.1 L231.0,131.1 L231.0,130.5 L232.0,130.0 L231.5,131.1Z M178.0,142.6 L175.9,142.5 L173.4,139.5 L176.5,133.3 L177.5,132.3 L178.0,132.5 L178.2,133.5 L177.3,137.0 L179.1,141.5 L178.0,142.6Z M192.5,154.6 L190.5,153.2 L189.9,152.0 L190.0,151.1 L191.5,151.5 L192.5,152.8 L192.8,154.0 L192.5,154.6Z M189.5,252.6 L188.5,252.7 L188.3,252.0 L188.3,249.5 L189.0,248.9 L190.0,249.5 L190.7,251.0 L189.5,252.6Z M229.5,294.6 L226.9,294.5 L226.3,293.5 L226.5,292.5 L228.0,292.3 L229.7,293.0 L230.3,293.5 L229.5,294.6Z" fill="#93AE80" fill-rule="evenodd" stroke="#F5F1E8" stroke-width="1.4" stroke-linejoin="round"/><path d="M255.0,84.6 L252.5,83.6 L250.5,81.9 L246.5,80.0 L243.5,75.4 L241.0,75.1 L236.0,72.6 L235.9,71.5 L237.0,69.3 L239.1,67.0 L239.5,65.0 L241.5,63.9 L246.0,62.8 L257.0,61.1 L256.8,65.0 L257.9,68.5 L256.8,72.5 L256.7,82.0 L255.8,84.0 L255.0,84.6Z M201.0,69.0 L199.0,69.1 L196.3,67.0 L197.6,63.5 L199.0,62.4 L201.1,62.5 L202.6,65.5 L202.1,67.5 L201.0,69.0Z M239.5,118.0 L237.0,118.0 L235.2,114.0 L231.0,110.2 L229.4,108.0 L227.5,103.0 L218.8,99.5 L218.4,99.0 L218.6,98.0 L220.5,95.8 L222.5,94.8 L226.5,94.8 L232.5,98.0 L236.1,101.5 L236.7,103.5 L236.9,107.5 L237.5,109.1 L238.5,109.7 L240.1,108.5 L240.7,107.0 L240.9,104.5 L242.5,101.8 L244.0,100.9 L248.5,100.1 L253.5,95.8 L255.5,95.9 L256.1,96.5 L256.7,98.5 L256.8,102.0 L257.5,104.1 L259.5,106.1 L261.5,106.7 L270.0,106.6 L272.0,105.7 L275.3,102.0 L277.0,100.9 L286.0,100.6 L287.7,100.0 L291.8,96.5 L293.5,95.8 L302.5,95.9 L304.7,97.0 L307.5,99.6 L311.5,101.0 L312.2,102.5 L312.0,104.6 L308.5,107.3 L307.8,108.5 L308.3,110.5 L311.7,112.5 L312.2,113.5 L311.6,116.0 L309.5,117.2 L307.4,117.0 L304.0,113.4 L301.0,113.1 L297.5,111.8 L292.5,111.8 L287.0,113.4 L284.2,116.5 L281.5,117.7 L271.0,117.7 L268.0,117.0 L267.1,114.0 L264.5,111.9 L249.0,111.8 L245.5,113.1 L242.4,113.5 L239.5,118.0Z M179.5,111.6 L178.0,111.6 L176.3,110.0 L174.4,106.0 L175.9,102.5 L178.0,100.1 L180.0,100.9 L180.7,103.0 L180.7,109.0 L179.5,111.6Z M231.0,293.1 L226.5,292.1 L225.3,290.0 L225.4,288.5 L229.1,283.5 L229.2,280.0 L228.6,278.5 L226.0,276.4 L221.0,275.6 L219.3,273.5 L219.8,271.0 L223.0,268.7 L228.8,262.5 L228.5,260.4 L225.5,258.9 L210.5,258.7 L205.0,255.8 L203.8,256.5 L202.8,258.5 L202.5,269.5 L200.5,270.2 L198.5,270.1 L197.0,269.2 L195.7,267.0 L193.5,265.3 L191.5,264.9 L188.5,265.9 L186.9,268.5 L186.7,273.0 L186.1,274.5 L182.5,277.3 L180.9,279.5 L180.7,284.0 L180.1,285.5 L174.5,291.7 L172.5,292.7 L162.5,292.6 L160.0,291.2 L157.5,288.3 L156.0,287.4 L153.5,286.8 L150.5,286.7 L149.0,286.1 L143.8,280.5 L141.7,277.5 L132.8,269.0 L132.3,268.0 L132.4,266.5 L136.0,263.7 L138.3,259.5 L140.7,257.5 L143.5,253.3 L145.6,252.0 L146.6,250.0 L147.2,246.5 L146.8,243.0 L147.0,239.4 L148.9,237.5 L151.5,236.2 L154.3,232.5 L156.7,231.0 L158.1,229.5 L158.7,227.5 L158.9,218.0 L160.5,215.8 L163.7,213.5 L164.6,212.0 L164.8,203.0 L165.4,201.0 L170.8,194.0 L175.2,191.0 L179.5,187.2 L181.0,184.0 L184.5,182.8 L188.5,182.8 L190.5,183.6 L193.3,187.0 L196.1,189.0 L196.7,191.0 L196.9,195.0 L198.0,197.2 L200.0,198.2 L202.5,197.8 L207.5,199.3 L208.2,201.5 L207.5,204.0 L206.0,204.7 L201.0,204.9 L197.9,206.5 L196.8,209.0 L196.8,216.5 L197.8,219.0 L200.0,220.6 L207.5,220.7 L209.5,220.1 L212.1,218.5 L213.9,212.0 L217.5,208.2 L218.6,205.5 L218.7,199.5 L218.3,198.0 L217.9,191.0 L218.7,187.0 L218.1,185.0 L216.5,183.4 L214.5,182.8 L207.0,182.7 L205.0,182.1 L203.9,181.0 L203.9,178.5 L207.1,173.5 L207.9,169.0 L208.8,168.0 L211.0,166.8 L222.0,166.7 L224.5,165.8 L228.0,166.7 L233.0,166.8 L236.0,168.0 L236.6,169.5 L236.2,170.5 L231.5,172.8 L225.9,179.5 L224.9,182.0 L224.8,184.0 L226.0,187.2 L231.9,193.0 L234.0,193.7 L237.5,193.6 L244.5,188.9 L248.0,188.7 L249.5,188.1 L251.6,185.5 L251.6,181.0 L250.7,179.5 L246.9,176.0 L246.3,174.0 L247.0,172.4 L249.0,171.8 L254.0,171.9 L256.0,173.0 L258.0,176.0 L260.5,176.7 L262.2,175.5 L264.5,172.1 L269.0,171.7 L271.0,171.1 L274.3,168.0 L278.0,165.7 L278.7,164.0 L278.7,153.5 L277.7,151.5 L274.4,148.5 L273.8,146.5 L274.4,145.0 L285.5,144.7 L288.0,143.5 L289.1,141.5 L289.7,138.5 L289.9,132.5 L290.4,130.5 L291.5,129.4 L293.0,128.8 L301.0,128.8 L304.0,129.4 L305.6,130.5 L306.1,132.5 L301.9,135.5 L300.8,139.0 L300.6,142.5 L299.7,144.0 L296.8,146.5 L295.9,148.0 L294.8,153.0 L295.7,158.5 L295.1,162.0 L293.7,165.0 L292.5,166.1 L291.0,166.0 L289.9,163.0 L289.7,159.5 L289.1,158.0 L288.0,157.3 L286.5,157.4 L285.4,158.5 L284.1,164.5 L279.4,168.5 L278.6,174.5 L277.2,176.5 L275.0,177.7 L266.0,177.8 L264.5,178.4 L263.4,179.5 L262.8,181.5 L262.8,184.0 L264.3,187.5 L269.9,193.0 L276.5,194.4 L278.0,195.8 L278.7,197.5 L275.5,199.8 L274.5,201.7 L272.5,203.7 L268.8,206.5 L266.4,211.5 L266.7,221.0 L264.8,230.0 L264.7,238.0 L264.0,238.7 L261.0,238.8 L259.0,239.4 L257.9,240.5 L257.3,242.0 L257.5,245.1 L259.5,247.1 L262.9,248.5 L262.6,250.0 L260.5,253.7 L257.0,257.2 L247.8,263.5 L243.5,267.8 L238.9,277.0 L237.1,282.0 L232.1,292.0 L231.0,293.1Z M250.5,149.6 L249.5,149.7 L247.4,149.0 L246.0,147.6 L245.4,146.0 L245.4,143.0 L246.4,140.0 L247.5,139.1 L250.5,139.9 L252.6,142.5 L252.7,146.5 L252.2,148.5 L250.5,149.6Z M172.5,144.6 L170.0,144.0 L169.8,143.0 L171.0,140.5 L173.0,139.6 L174.2,140.5 L175.4,142.5 L175.0,143.5 L172.5,144.6Z M88.5,182.7 L86.0,182.7 L84.0,181.7 L83.3,180.5 L83.8,178.5 L85.0,177.8 L87.0,178.3 L88.1,179.5 L88.7,182.0 L88.5,182.7Z M92.5,193.1 L90.5,193.1 L88.9,191.5 L89.0,182.8 L92.0,182.9 L93.2,183.5 L94.1,185.0 L94.7,189.5 L93.9,192.0 L92.5,193.1Z M188.7,198.5 L190.7,197.0 L191.7,195.0 L191.6,191.5 L191.0,190.3 L190.0,189.8 L188.0,190.3 L183.0,194.5 L182.3,196.0 L182.8,197.5 L184.5,198.6 L188.7,198.5Z M194.6,242.0 L199.4,236.5 L202.0,235.2 L205.0,231.2 L205.7,229.0 L205.1,227.5 L202.5,226.8 L199.5,227.4 L198.0,228.3 L196.6,231.0 L195.5,231.7 L193.5,231.7 L191.5,231.1 L189.5,228.4 L188.0,229.4 L187.8,230.5 L188.2,232.5 L187.8,234.5 L188.2,237.0 L187.3,239.5 L187.4,241.0 L189.0,242.2 L194.6,242.0Z M226.7,246.5 L233.7,242.0 L234.6,240.5 L235.2,238.0 L234.8,234.5 L235.2,232.0 L234.6,230.0 L233.0,227.9 L230.0,226.8 L226.3,228.0 L224.0,230.7 L220.3,233.0 L219.3,235.0 L219.7,238.5 L219.4,241.0 L220.9,245.5 L223.0,246.7 L226.7,246.5Z M173.2,268.5 L174.7,267.5 L177.0,264.3 L180.0,262.7 L182.0,258.5 L184.0,258.1 L185.5,257.2 L188.0,253.5 L190.6,251.5 L190.0,249.5 L188.0,248.2 L184.0,243.9 L180.0,242.8 L175.5,242.8 L173.0,243.4 L171.5,244.3 L167.8,248.0 L165.4,251.0 L164.8,254.0 L166.2,259.0 L164.8,263.0 L164.9,266.0 L166.0,267.7 L167.5,268.6 L173.2,268.5Z" fill="#2A9483" fill-rule="evenodd" stroke="#F5F1E8" stroke-width="1.4" stroke-linejoin="round"/><path d="M270.0,106.6 L261.0,106.6 L258.5,105.2 L257.4,104.0 L256.9,102.5 L256.7,98.5 L255.8,95.5 L256.7,92.5 L256.7,88.0 L255.8,84.5 L256.7,82.0 L256.8,72.5 L258.0,69.0 L263.0,68.7 L266.2,67.5 L267.6,65.5 L267.9,62.0 L269.0,60.8 L290.5,60.8 L291.6,61.5 L290.8,64.5 L290.9,66.5 L292.5,68.1 L298.0,68.9 L303.5,73.1 L306.0,73.7 L311.0,73.8 L312.0,74.3 L312.7,76.0 L312.3,78.0 L312.3,82.5 L313.1,86.5 L311.8,93.5 L311.7,99.5 L311.1,100.5 L307.5,99.6 L304.7,97.0 L302.5,95.9 L293.5,95.8 L291.8,96.5 L287.7,100.0 L286.0,100.6 L277.0,100.9 L275.3,102.0 L272.0,105.7 L270.0,106.6Z M263.5,118.1 L249.0,117.6 L247.5,117.1 L246.3,116.0 L245.4,114.5 L245.4,113.5 L246.5,112.4 L248.5,111.8 L264.5,111.9 L267.1,114.0 L267.7,116.5 L267.0,117.2 L263.5,118.1Z M284.0,199.2 L279.5,197.9 L276.5,194.4 L274.5,193.8 L271.5,193.6 L269.5,192.7 L263.9,187.0 L262.8,184.0 L262.8,181.5 L263.5,179.4 L265.5,177.9 L275.0,177.7 L277.2,176.5 L278.6,174.5 L279.4,168.5 L284.1,164.5 L285.8,158.0 L286.5,157.4 L288.0,157.3 L289.0,157.8 L289.6,159.0 L289.8,162.5 L290.9,166.5 L289.5,170.2 L285.9,173.5 L284.8,177.0 L284.7,198.0 L284.5,199.0 L284.0,199.2Z M237.5,193.6 L234.0,193.7 L231.5,192.7 L226.0,187.2 L224.8,183.5 L225.9,179.5 L230.8,173.5 L232.0,172.4 L236.5,170.6 L240.0,171.7 L243.5,171.8 L245.6,172.5 L246.9,176.0 L250.7,179.5 L251.7,182.0 L251.6,185.5 L250.0,187.7 L248.0,188.7 L244.5,188.9 L237.5,193.6Z M188.5,198.6 L184.5,198.6 L182.8,197.5 L182.3,196.0 L183.0,194.5 L188.0,190.3 L190.0,189.8 L191.0,190.3 L191.6,191.5 L191.7,195.0 L190.7,197.0 L188.5,198.6Z" fill="#2F5E2A" fill-rule="evenodd" stroke="#F5F1E8" stroke-width="1.4" stroke-linejoin="round"/><path d="M201.5,311.6 L175.5,311.7 L140.5,304.7 L133.0,302.8 L111.0,302.7 L109.5,302.2 L108.4,301.0 L107.8,299.0 L107.7,293.5 L106.8,290.5 L106.7,283.0 L105.8,279.5 L105.7,270.5 L104.8,267.0 L104.7,261.0 L103.8,257.5 L103.7,249.0 L102.8,245.5 L102.8,237.5 L103.2,235.0 L103.2,232.5 L103.7,229.5 L103.8,222.5 L104.7,218.5 L104.7,212.5 L104.3,211.0 L103.5,210.2 L102.5,209.8 L96.0,209.7 L93.0,208.4 L90.0,208.2 L84.5,206.6 L82.0,206.2 L80.8,205.5 L78.2,202.0 L77.0,201.3 L76.0,201.8 L74.0,203.5 L72.5,203.7 L71.0,203.7 L68.0,202.8 L60.5,201.6 L59.0,201.0 L57.0,199.7 L56.2,198.5 L55.8,197.0 L55.8,170.0 L56.1,168.5 L57.9,165.0 L60.0,161.8 L62.0,160.9 L70.5,162.9 L73.0,164.1 L77.0,165.2 L79.0,165.2 L80.5,164.7 L83.5,162.8 L84.5,162.8 L86.5,163.7 L87.3,163.5 L87.7,162.5 L87.7,159.5 L90.1,156.5 L90.7,155.0 L90.8,143.5 L91.7,139.5 L92.1,126.5 L90.6,123.5 L89.0,121.2 L84.6,112.5 L83.0,111.0 L75.5,110.7 L72.0,109.8 L66.5,109.7 L59.5,107.6 L56.0,106.1 L54.5,105.0 L51.9,100.0 L49.1,91.0 L47.3,86.5 L30.0,56.5 L28.9,54.0 L27.9,50.0 L25.7,38.0 L25.0,36.0 L22.2,32.0 L19.3,29.0 L14.0,22.0 L13.8,20.5 L14.3,19.5 L19.0,14.9 L21.0,14.0 L22.0,14.0 L28.5,18.6 L32.5,20.6 L41.0,22.4 L75.0,30.9 L80.5,32.6 L83.0,32.9 L88.5,34.6 L91.0,34.8 L97.5,36.6 L100.5,36.9 L115.0,40.7 L118.5,40.8 L122.5,42.6 L154.5,50.6 L158.0,50.8 L166.0,52.7 L169.0,52.8 L174.5,54.6 L178.0,54.9 L180.5,56.1 L183.0,55.8 L184.0,55.9 L185.5,56.8 L188.5,59.4 L189.5,59.3 L191.5,58.5 L192.5,58.5 L195.5,60.7 L198.0,59.5 L199.0,59.7 L201.0,60.6 L204.5,59.8 L207.0,60.7 L212.0,60.8 L215.0,61.7 L217.0,61.8 L221.5,62.8 L224.0,63.7 L227.0,63.8 L235.0,65.6 L238.5,65.1 L241.5,63.9 L246.0,62.8 L248.0,62.7 L251.0,61.8 L254.0,61.7 L257.5,60.8 L296.0,60.8 L299.5,61.7 L302.0,60.8 L305.0,60.8 L306.2,61.5 L307.5,63.0 L308.2,65.0 L308.0,67.5 L308.5,68.4 L312.5,69.9 L313.1,71.0 L313.1,72.5 L313.5,73.4 L315.5,73.4 L316.5,73.8 L320.6,78.0 L322.2,81.0 L322.2,86.0 L320.6,94.0 L319.4,96.5 L319.5,99.0 L318.8,102.5 L318.7,105.0 L317.6,110.0 L316.0,112.5 L316.0,115.5 L315.0,117.5 L314.6,120.0 L313.1,124.5 L312.0,126.5 L310.7,130.0 L308.0,133.5 L306.4,138.0 L305.6,142.0 L303.9,145.0 L302.5,150.2 L302.0,151.1 L300.3,152.5 L299.9,153.5 L300.2,157.0 L298.3,162.5 L298.7,165.0 L298.7,168.5 L297.8,172.5 L297.8,179.0 L298.7,182.5 L298.7,187.0 L296.9,193.5 L296.6,196.5 L294.6,201.0 L293.5,202.7 L292.5,203.2 L291.5,203.2 L288.0,200.9 L283.0,198.9 L279.0,198.0 L275.9,199.5 L273.0,203.2 L268.8,206.5 L267.1,209.5 L266.3,212.0 L266.7,215.0 L266.7,220.5 L265.8,224.0 L265.7,227.0 L264.8,230.5 L264.7,245.5 L262.6,250.0 L260.6,253.5 L257.0,257.2 L254.9,258.5 L252.5,260.6 L247.5,263.8 L243.4,268.0 L239.2,276.5 L237.3,281.5 L232.1,292.0 L229.5,294.5 L227.0,294.8 L226.0,295.5 L225.6,296.5 L226.0,302.5 L225.2,304.0 L223.5,304.7 L209.0,304.8 L208.0,305.5 L206.0,309.2 L201.5,311.6Z" fill="none" stroke="#111" stroke-width="2" stroke-linejoin="round"/><g font-family="Arial" font-size="8" fill="#555"><line x1="8" y1="317" x2="61.7" y2="317" stroke="#555" stroke-width=".8"/><text x="8" y="314">100 m</text></g></svg>