<svg xmlns="http://www.w3.org/2000/svg" viewBox="0 0 252 428"><rect width="252" height="428" fill="#F5F1E8"/><path d="M19.0,43.6 L18.0,43.6 L17.4,43.0 L13.8,32.5 L13.9,28.0 L15.0,25.8 L17.5,23.1 L21.2,26.5 L22.6,28.5 L25.1,33.0 L25.7,36.0 L25.1,40.0 L24.2,41.5 L21.5,43.1 L19.0,43.6Z M131.5,414.6 L129.5,414.6 L127.8,413.5 L122.4,406.0 L120.4,402.0 L120.7,399.5 L119.8,396.5 L119.7,391.5 L117.8,385.5 L117.7,376.5 L116.8,373.5 L116.7,357.0 L116.3,354.0 L116.7,349.5 L111.6,335.0 L109.9,332.0 L109.6,329.0 L107.9,326.0 L107.6,323.0 L105.9,320.0 L105.6,317.0 L103.9,314.0 L103.7,309.5 L101.8,303.5 L101.6,300.0 L99.9,296.0 L99.7,292.5 L97.9,287.0 L96.6,279.0 L95.1,273.5 L93.9,271.0 L93.7,267.5 L91.8,260.5 L91.6,258.0 L89.9,254.0 L89.7,251.5 L87.8,244.5 L87.7,242.5 L85.8,235.5 L85.6,233.0 L83.9,228.0 L79.6,210.0 L78.3,206.5 L78.2,203.0 L77.6,200.0 L73.9,190.0 L71.6,182.0 L69.9,179.0 L69.6,176.0 L66.4,167.5 L65.1,162.5 L63.9,160.0 L61.1,150.5 L59.9,148.0 L59.6,145.0 L57.9,142.0 L57.1,138.5 L54.4,134.0 L52.6,129.5 L50.4,126.0 L43.9,113.0 L41.9,108.0 L41.1,104.5 L38.4,100.0 L36.6,95.5 L33.9,92.0 L31.1,86.0 L27.9,81.0 L27.7,77.0 L25.6,69.5 L33.2,61.5 L33.7,60.5 L33.1,58.0 L29.5,53.7 L28.8,52.0 L28.9,49.0 L29.5,47.8 L31.0,46.9 L36.5,46.8 L41.5,48.4 L45.0,50.4 L47.0,52.1 L49.5,53.2 L52.5,52.6 L55.5,50.4 L59.5,48.8 L64.5,49.7 L67.5,48.3 L70.0,49.4 L71.2,50.5 L73.1,53.0 L73.4,54.5 L75.6,57.5 L79.9,65.0 L85.6,72.5 L88.9,79.0 L92.6,84.5 L96.9,92.0 L99.6,95.5 L99.9,97.0 L103.1,101.5 L105.9,107.0 L113.6,118.5 L114.9,122.0 L125.0,135.3 L130.0,143.2 L135.7,149.0 L137.3,151.5 L141.0,155.2 L148.5,160.6 L154.2,163.5 L158.7,168.0 L163.9,181.0 L177.1,194.5 L179.1,200.0 L179.9,206.5 L181.6,209.5 L181.8,215.0 L183.6,219.5 L183.9,223.5 L185.2,226.0 L185.4,229.5 L187.3,231.5 L189.5,232.8 L190.6,234.5 L191.7,238.5 L191.9,241.5 L193.6,246.5 L193.8,251.0 L195.7,258.0 L195.9,261.5 L198.7,272.0 L198.8,276.0 L200.7,284.0 L200.8,292.0 L201.2,294.5 L200.8,299.0 L201.9,303.5 L203.6,306.5 L205.9,314.5 L207.6,317.5 L207.9,320.0 L209.6,323.5 L210.4,328.0 L212.4,333.5 L213.6,335.5 L216.9,346.0 L219.0,349.2 L228.2,356.5 L228.6,357.0 L228.4,360.0 L230.5,361.5 L231.6,364.5 L232.2,370.0 L231.4,371.5 L231.1,374.0 L228.5,376.1 L226.0,377.2 L225.5,377.0 L222.4,370.5 L221.6,366.5 L219.9,363.0 L219.6,360.5 L217.0,356.4 L210.5,354.6 L208.5,353.6 L206.0,351.7 L202.5,347.4 L200.0,347.7 L196.5,345.9 L189.0,345.1 L170.5,337.9 L166.0,336.8 L163.0,337.4 L159.9,343.0 L157.6,352.0 L155.9,356.0 L155.6,359.0 L151.9,371.0 L150.1,379.5 L147.9,387.0 L147.6,392.0 L145.9,396.0 L145.6,399.0 L143.9,403.0 L143.6,406.0 L141.0,410.2 L139.6,411.5 L137.0,412.4 L135.5,413.6 L131.5,414.6Z" fill="#3D7DB3" fill-rule="evenodd" stroke="#F5F1E8" stroke-width="1.4" stroke-linejoin="round"/><path d="M26.5,68.6 L25.5,68.8 L24.9,68.0 L17.8,44.5 L18.5,43.8 L21.5,43.1 L24.2,41.5 L25.1,40.0 L25.7,36.0 L25.1,33.0 L22.6,28.5 L17.9,23.0 L18.4,21.0 L19.5,19.3 L23.5,15.8 L30.5,15.7 L34.5,14.8 L40.5,14.7 L44.5,13.8 L52.5,13.8 L54.0,14.4 L57.1,20.5 L59.4,28.0 L58.0,27.7 L52.5,21.8 L50.5,21.1 L48.9,21.5 L47.5,23.5 L46.5,24.1 L40.5,24.8 L34.0,26.4 L32.0,27.5 L31.8,29.0 L33.5,30.2 L42.5,29.9 L44.0,30.8 L47.5,34.7 L49.0,35.6 L55.5,35.8 L59.0,37.1 L63.0,37.5 L66.8,47.5 L66.7,48.5 L64.5,49.7 L59.0,48.9 L55.5,50.4 L52.5,52.6 L50.0,53.2 L47.0,52.1 L42.5,48.9 L37.0,46.9 L31.5,46.8 L30.0,47.4 L28.8,49.5 L28.9,52.5 L33.1,58.0 L33.7,60.5 L26.5,68.6Z M236.5,383.6 L230.5,383.6 L227.0,380.2 L226.0,377.5 L231.5,373.9 L234.0,373.5 L238.1,380.5 L238.1,382.0 L236.5,383.6Z" fill="#B8894C" fill-rule="evenodd" stroke="#F5F1E8" stroke-width="1.4" stroke-linejoin="round"/><path d="M59.5,32.1 L57.5,32.1 L54.0,29.7 L48.0,24.0 L47.8,23.0 L48.3,22.0 L50.5,21.1 L52.5,21.8 L59.6,29.0 L60.3,31.0 L59.5,32.1Z" fill="#B5B43E" fill-rule="evenodd" stroke="#F5F1E8" stroke-width="1.4" stroke-linejoin="round"/><path d="M62.0,37.2 L59.5,37.2 L55.5,35.8 L49.0,35.6 L47.5,34.7 L44.0,30.8 L42.5,29.9 L33.5,30.2 L32.0,29.5 L31.8,28.0 L34.0,26.4 L40.5,24.8 L47.5,23.9 L51.0,26.5 L54.0,29.7 L56.5,31.6 L58.0,32.2 L60.0,31.9 L61.0,32.3 L62.6,36.0 L62.5,37.0 L62.0,37.2Z M230.0,360.7 L229.0,360.6 L228.4,360.0 L228.5,358.1 L229.6,358.5 L230.0,360.7Z M232.5,373.6 L231.5,373.5 L231.3,373.0 L231.4,371.5 L232.0,370.9 L232.5,370.8 L233.3,372.5 L232.5,373.6Z" fill="#93AE80" fill-rule="evenodd" stroke="#F5F1E8" stroke-width="1.4" stroke-linejoin="round"/><path d="M131.5,414.6 L129.5,414.6 L127.8,413.5 L122.4,406.0 L120.5,402.0 L120.6,399.5 L119.8,396.5 L119.7,391.5 L117.8,385.5 L117.7,377.0 L116.8,373.0 L116.7,357.5 L116.3,354.0 L116.7,349.5 L111.6,335.0 L109.9,332.0 L109.6,329.0 L107.9,326.0 L107.6,323.0 L105.9,320.0 L105.6,317.0 L103.9,314.0 L103.7,309.5 L101.9,304.0 L101.6,300.0 L99.9,296.0 L99.7,292.5 L97.9,287.0 L96.6,279.0 L95.2,274.0 L93.8,270.5 L93.6,267.0 L91.9,261.0 L91.6,258.0 L89.8,253.5 L89.7,251.5 L85.9,236.0 L85.6,233.0 L83.9,228.0 L79.6,210.0 L78.3,206.5 L78.2,203.0 L77.6,200.0 L75.1,192.5 L73.9,190.0 L73.6,188.0 L71.9,184.0 L71.6,182.0 L69.9,179.0 L69.6,176.0 L66.4,167.5 L65.1,162.5 L63.9,160.0 L63.6,158.0 L61.2,151.0 L59.9,148.0 L59.6,145.0 L57.9,142.0 L57.1,138.5 L55.6,135.5 L54.2,133.5 L52.1,128.5 L50.2,125.5 L44.4,114.0 L41.9,108.0 L41.1,104.5 L39.6,101.5 L38.2,99.5 L36.8,96.0 L34.3,92.5 L31.1,86.0 L27.9,81.0 L27.7,77.0 L27.1,74.5 L17.1,41.5 L13.9,33.0 L13.8,29.0 L14.6,26.5 L17.2,23.0 L19.3,19.5 L22.3,16.5 L23.5,15.8 L30.0,15.7 L34.5,14.8 L40.0,14.7 L45.5,13.8 L52.5,13.8 L54.5,14.9 L57.1,20.5 L59.6,28.0 L59.9,30.0 L62.1,34.5 L66.7,47.0 L67.5,48.0 L70.7,50.0 L72.7,52.5 L73.5,54.5 L75.6,57.5 L79.9,65.0 L85.6,72.5 L88.9,79.0 L92.6,84.5 L96.9,92.0 L99.2,95.0 L100.0,97.0 L103.1,101.5 L105.9,107.0 L113.2,118.0 L114.9,122.0 L123.0,133.1 L125.0,135.4 L130.3,143.5 L135.7,149.0 L137.8,152.0 L141.0,155.2 L143.1,156.5 L145.4,158.5 L151.0,162.1 L154.5,163.8 L158.7,168.0 L159.6,169.5 L163.9,181.0 L177.1,194.5 L178.1,196.5 L179.1,200.0 L179.2,203.0 L179.9,206.5 L181.7,210.0 L181.8,215.0 L183.6,219.5 L183.9,223.5 L185.2,226.0 L185.5,229.5 L187.0,231.2 L189.7,233.0 L191.2,236.0 L191.9,241.5 L193.7,247.0 L193.8,251.0 L195.7,258.0 L195.8,261.0 L198.7,272.0 L198.8,276.0 L200.7,284.0 L200.8,291.5 L201.2,294.5 L200.8,298.5 L201.9,303.5 L203.6,306.5 L203.9,308.5 L205.6,312.5 L205.9,314.5 L207.6,317.5 L208.1,320.5 L209.6,323.5 L210.4,328.0 L212.3,333.0 L213.6,335.5 L214.4,339.0 L215.6,341.5 L216.9,346.0 L218.8,349.0 L222.0,351.3 L225.0,354.2 L228.0,356.3 L229.2,358.0 L231.6,364.5 L231.8,367.5 L232.9,371.5 L238.0,380.5 L238.1,381.5 L237.7,382.5 L236.0,383.7 L231.0,383.7 L229.5,382.7 L227.3,380.5 L225.9,378.0 L224.4,374.0 L222.4,370.5 L221.5,366.5 L219.9,363.0 L219.5,360.5 L217.5,357.0 L216.0,355.9 L210.5,354.6 L208.5,353.6 L206.0,351.6 L202.5,347.5 L200.0,347.6 L196.0,345.8 L189.0,345.1 L186.5,343.9 L184.5,343.6 L171.5,338.3 L166.0,336.8 L164.5,336.9 L163.0,337.5 L162.1,338.5 L160.0,342.8 L158.9,346.0 L157.6,352.0 L155.9,356.0 L155.6,359.0 L151.9,371.0 L150.1,379.5 L147.8,387.5 L147.6,392.0 L145.9,396.0 L145.6,399.0 L143.9,403.0 L143.3,406.5 L140.0,411.2 L137.0,412.5 L135.5,413.5 L131.5,414.6Z" fill="none" stroke="#111" stroke-width="2" stroke-linejoin="round"/><g font-family="Arial" font-size="8" fill="#555"><line x1="8" y1="420" x2="31.6" y2="420" stroke="#555" stroke-width=".8"/><text x="8" y="417">100 m</text></g></svg>